<?xml version="1.0" encoding="UTF-8"?>
<svg viewBox="0 0 189 109" version="1.1" xmlns="http://www.w3.org/2000/svg" xmlns:xlink="http://www.w3.org/1999/xlink">
    <title>Chemical diagram of a carbon-hydrogen-fluorine chain</title>
    <style type="text/css">
      line{
        stroke: #000;
        stroke-width: 1.5;
      }
      path{
        fill: #000;
        fill-rule: nonzero;
      }
    </style>
    <line x1="48.5" y1="44.5" x2="48.5" y2="32.5"/>
    <line x1="26.5" y1="54.5" x2="38.5" y2="54.5"/>
    <line x1="58.5" y1="54.5" x2="70.5" y2="54.5"/>
    <line x1="89.5" y1="54.5" x2="101.5" y2="54.5"/>
    <line x1="120.5" y1="54.5" x2="132.5" y2="54.5"/>
    <line x1="48.5" y1="74.5" x2="48.5" y2="62.5"/>
    <path d="M48.0175781,58.2119141 C48.8697917,58.2119141 49.6057943,58.0205078 50.2255859,57.6376953 C50.8453776,57.2548828 51.3876953,56.6510417 51.8525391,55.8261719 L51.8525391,55.8261719 L51.640625,55.6894531 C51.0891927,56.4550781 50.5833333,56.9666341 50.1230469,57.2241211 C49.6627604,57.4816081 49.1318359,57.6103516 48.5302734,57.6103516 C47.8375651,57.6103516 47.2211914,57.4462891 46.6811523,57.1181641 C46.1411133,56.7900391 45.7366536,56.3183594 45.4677734,55.703125 C45.1988932,55.0878906 45.0644531,54.3610026 45.0644531,53.5224609 C45.0644531,52.5061849 45.2068685,51.65625 45.4916992,50.9726562 C45.7765299,50.2890625 46.1673177,49.7911784 46.6640625,49.4790039 C47.1608073,49.1668294 47.7167969,49.0107422 48.3320312,49.0107422 C49.0657552,49.0107422 49.6946615,49.218099 50.21875,49.6328125 C50.7428385,50.047526 51.1461589,50.7265625 51.4287109,51.6699219 L51.4287109,51.6699219 L51.640625,51.6699219 L51.4287109,48.5185547 L51.1894531,48.5185547 C51.1393229,48.7373047 51.055013,48.9082031 50.9365234,49.03125 C50.8453776,49.1178385 50.7382812,49.1611328 50.6152344,49.1611328 C50.5332031,49.1611328 50.3964844,49.1110026 50.2050781,49.0107422 C49.5533854,48.6826172 48.8925781,48.5185547 48.2226562,48.5185547 C47.3613281,48.5185547 46.5672201,48.7316081 45.840332,49.1577148 C45.113444,49.5838216 44.5426432,50.1842448 44.1279297,50.9589844 C43.7132161,51.733724 43.5058594,52.5836589 43.5058594,53.5087891 C43.5058594,54.6572266 43.8203125,55.6552734 44.4492188,56.5029297 C45.2923177,57.6422526 46.4817708,58.2119141 48.0175781,58.2119141 Z"/>
    <path d="M47.2041016,90 L47.2041016,89.7470703 L46.8691406,89.7470703 C46.6503906,89.7470703 46.4407552,89.6923828 46.2402344,89.5830078 C46.094401,89.5009766 45.9986979,89.4029948 45.953125,89.2890625 C45.8938802,89.1386719 45.8642578,88.828776 45.8642578,88.359375 L45.8642578,88.359375 L45.8642578,85.4472656 L47.5527344,85.4472656 C47.8626302,85.4472656 48.0961914,85.4894206 48.253418,85.5737305 C48.4106445,85.6580404 48.5336914,85.7845052 48.6225586,85.953125 C48.7114258,86.1217448 48.758138,86.3860677 48.7626953,86.7460938 L48.7626953,86.7460938 L49.015625,86.7460938 L49.015625,83.6083984 L48.7626953,83.6083984 C48.7034505,84.1142578 48.5838216,84.4526367 48.4038086,84.6235352 C48.2237956,84.7944336 47.9401042,84.8798828 47.5527344,84.8798828 L47.5527344,84.8798828 L45.8642578,84.8798828 L45.8642578,81.2363281 L47.9082031,81.2363281 C48.391276,81.2363281 48.7478841,81.281901 48.9780273,81.3730469 C49.2081706,81.4641927 49.4018555,81.6111654 49.559082,81.8139648 C49.7163086,82.0167643 49.8541667,82.3346354 49.9726562,82.7675781 L49.9726562,82.7675781 L50.2119141,82.7675781 L50.1230469,80.7304688 L43.2255859,80.7304688 L43.2255859,80.9833984 L43.5537109,80.9833984 C43.7770182,80.9833984 43.9866536,81.0380859 44.1826172,81.1474609 C44.3238932,81.2294922 44.4173177,81.327474 44.4628906,81.4414062 C44.5221354,81.5917969 44.5517578,81.9016927 44.5517578,82.3710938 L44.5517578,82.3710938 L44.5517578,88.359375 C44.5517578,88.9153646 44.4970703,89.266276 44.3876953,89.4121094 C44.2145182,89.6354167 43.9365234,89.7470703 43.5537109,89.7470703 L43.5537109,89.7470703 L43.2255859,89.7470703 L43.2255859,90 L47.2041016,90 Z"/>
    <path d="M78.2041016,90 L78.2041016,89.7470703 L77.8691406,89.7470703 C77.6503906,89.7470703 77.4407552,89.6923828 77.2402344,89.5830078 C77.094401,89.5009766 76.9986979,89.4029948 76.953125,89.2890625 C76.8938802,89.1386719 76.8642578,88.828776 76.8642578,88.359375 L76.8642578,88.359375 L76.8642578,85.4472656 L78.5527344,85.4472656 C78.8626302,85.4472656 79.0961914,85.4894206 79.253418,85.5737305 C79.4106445,85.6580404 79.5336914,85.7845052 79.6225586,85.953125 C79.7114258,86.1217448 79.758138,86.3860677 79.7626953,86.7460938 L79.7626953,86.7460938 L80.015625,86.7460938 L80.015625,83.6083984 L79.7626953,83.6083984 C79.7034505,84.1142578 79.5838216,84.4526367 79.4038086,84.6235352 C79.2237956,84.7944336 78.9401042,84.8798828 78.5527344,84.8798828 L78.5527344,84.8798828 L76.8642578,84.8798828 L76.8642578,81.2363281 L78.9082031,81.2363281 C79.391276,81.2363281 79.7478841,81.281901 79.9780273,81.3730469 C80.2081706,81.4641927 80.4018555,81.6111654 80.559082,81.8139648 C80.7163086,82.0167643 80.8541667,82.3346354 80.9726562,82.7675781 L80.9726562,82.7675781 L81.2119141,82.7675781 L81.1230469,80.7304688 L74.2255859,80.7304688 L74.2255859,80.9833984 L74.5537109,80.9833984 C74.7770182,80.9833984 74.9866536,81.0380859 75.1826172,81.1474609 C75.3238932,81.2294922 75.4173177,81.327474 75.4628906,81.4414062 C75.5221354,81.5917969 75.5517578,81.9016927 75.5517578,82.3710938 L75.5517578,82.3710938 L75.5517578,88.359375 C75.5517578,88.9153646 75.4970703,89.266276 75.3876953,89.4121094 C75.2145182,89.6354167 74.9365234,89.7470703 74.5537109,89.7470703 L74.5537109,89.7470703 L74.2255859,89.7470703 L74.2255859,90 L78.2041016,90 Z"/>
    <path d="M110.204102,90 L110.204102,89.7470703 L109.869141,89.7470703 C109.650391,89.7470703 109.440755,89.6923828 109.240234,89.5830078 C109.094401,89.5009766 108.998698,89.4029948 108.953125,89.2890625 C108.89388,89.1386719 108.864258,88.828776 108.864258,88.359375 L108.864258,88.359375 L108.864258,85.4472656 L110.552734,85.4472656 C110.86263,85.4472656 111.096191,85.4894206 111.253418,85.5737305 C111.410645,85.6580404 111.533691,85.7845052 111.622559,85.953125 C111.711426,86.1217448 111.758138,86.3860677 111.762695,86.7460938 L111.762695,86.7460938 L112.015625,86.7460938 L112.015625,83.6083984 L111.762695,83.6083984 C111.703451,84.1142578 111.583822,84.4526367 111.403809,84.6235352 C111.223796,84.7944336 110.940104,84.8798828 110.552734,84.8798828 L110.552734,84.8798828 L108.864258,84.8798828 L108.864258,81.2363281 L110.908203,81.2363281 C111.391276,81.2363281 111.747884,81.281901 111.978027,81.3730469 C112.208171,81.4641927 112.401855,81.6111654 112.559082,81.8139648 C112.716309,82.0167643 112.854167,82.3346354 112.972656,82.7675781 L112.972656,82.7675781 L113.211914,82.7675781 L113.123047,80.7304688 L106.225586,80.7304688 L106.225586,80.9833984 L106.553711,80.9833984 C106.777018,80.9833984 106.986654,81.0380859 107.182617,81.1474609 C107.323893,81.2294922 107.417318,81.327474 107.462891,81.4414062 C107.522135,81.5917969 107.551758,81.9016927 107.551758,82.3710938 L107.551758,82.3710938 L107.551758,88.359375 C107.551758,88.9153646 107.49707,89.266276 107.387695,89.4121094 C107.214518,89.6354167 106.936523,89.7470703 106.553711,89.7470703 L106.553711,89.7470703 L106.225586,89.7470703 L106.225586,90 L110.204102,90 Z"/>
    <path d="M47.2109375,28 L47.2109375,27.7470703 L46.8759766,27.7470703 C46.6572266,27.7470703 46.4498698,27.6923828 46.2539062,27.5830078 C46.1080729,27.5009766 46.0123698,27.4029948 45.9667969,27.2890625 C45.9075521,27.1386719 45.8779297,26.828776 45.8779297,26.359375 L45.8779297,26.359375 L45.8779297,23.5361328 L50.1845703,23.5361328 L50.1845703,26.359375 C50.1845703,26.9153646 50.1276042,27.266276 50.0136719,27.4121094 C49.8404948,27.6354167 49.5647786,27.7470703 49.1865234,27.7470703 L49.1865234,27.7470703 L48.8583984,27.7470703 L48.8583984,28 L52.8232422,28 L52.8232422,27.7470703 L52.4951172,27.7470703 C52.2763672,27.7470703 52.0667318,27.6923828 51.8662109,27.5830078 C51.7249349,27.5009766 51.6315104,27.4029948 51.5859375,27.2890625 C51.5266927,27.1386719 51.4970703,26.828776 51.4970703,26.359375 L51.4970703,26.359375 L51.4970703,20.3779297 C51.4970703,19.9222005 51.5232747,19.6202799 51.5756836,19.472168 C51.6280924,19.324056 51.7272135,19.2135417 51.8730469,19.140625 C52.0690104,19.0358073 52.2763672,18.9833984 52.4951172,18.9833984 L52.4951172,18.9833984 L52.8232422,18.9833984 L52.8232422,18.7304688 L48.8583984,18.7304688 L48.8583984,18.9833984 L49.1865234,18.9833984 C49.4052734,18.9833984 49.6126302,19.0380859 49.8085938,19.1474609 C49.9544271,19.2294922 50.0501302,19.327474 50.0957031,19.4414062 C50.1549479,19.5917969 50.1845703,19.9039714 50.1845703,20.3779297 L50.1845703,20.3779297 L50.1845703,23.0302734 L45.8779297,23.0302734 L45.8779297,20.3779297 C45.8779297,19.9222005 45.9052734,19.6202799 45.9599609,19.472168 C46.0146484,19.324056 46.1126302,19.2135417 46.2539062,19.140625 C46.4498698,19.0358073 46.6572266,18.9833984 46.8759766,18.9833984 L46.8759766,18.9833984 L47.2109375,18.9833984 L47.2109375,18.7304688 L43.2392578,18.7304688 L43.2392578,18.9833984 L43.5673828,18.9833984 C43.7861328,18.9833984 43.9957682,19.0380859 44.1962891,19.1474609 C44.3375651,19.2294922 44.4309896,19.327474 44.4765625,19.4414062 C44.5358073,19.5917969 44.5654297,19.9039714 44.5654297,20.3779297 L44.5654297,20.3779297 L44.5654297,26.359375 C44.5654297,26.9153646 44.5107422,27.266276 44.4013672,27.4121094 C44.2281901,27.6354167 43.9501953,27.7470703 43.5673828,27.7470703 L43.5673828,27.7470703 L43.2392578,27.7470703 L43.2392578,28 L47.2109375,28 Z"/>
    <path d="M78.2109375,28 L78.2109375,27.7470703 L77.8759766,27.7470703 C77.6572266,27.7470703 77.4498698,27.6923828 77.2539062,27.5830078 C77.1080729,27.5009766 77.0123698,27.4029948 76.9667969,27.2890625 C76.9075521,27.1386719 76.8779297,26.828776 76.8779297,26.359375 L76.8779297,26.359375 L76.8779297,23.5361328 L81.1845703,23.5361328 L81.1845703,26.359375 C81.1845703,26.9153646 81.1276042,27.266276 81.0136719,27.4121094 C80.8404948,27.6354167 80.5647786,27.7470703 80.1865234,27.7470703 L80.1865234,27.7470703 L79.8583984,27.7470703 L79.8583984,28 L83.8232422,28 L83.8232422,27.7470703 L83.4951172,27.7470703 C83.2763672,27.7470703 83.0667318,27.6923828 82.8662109,27.5830078 C82.7249349,27.5009766 82.6315104,27.4029948 82.5859375,27.2890625 C82.5266927,27.1386719 82.4970703,26.828776 82.4970703,26.359375 L82.4970703,26.359375 L82.4970703,20.3779297 C82.4970703,19.9222005 82.5232747,19.6202799 82.5756836,19.472168 C82.6280924,19.324056 82.7272135,19.2135417 82.8730469,19.140625 C83.0690104,19.0358073 83.2763672,18.9833984 83.4951172,18.9833984 L83.4951172,18.9833984 L83.8232422,18.9833984 L83.8232422,18.7304688 L79.8583984,18.7304688 L79.8583984,18.9833984 L80.1865234,18.9833984 C80.4052734,18.9833984 80.6126302,19.0380859 80.8085938,19.1474609 C80.9544271,19.2294922 81.0501302,19.327474 81.0957031,19.4414062 C81.1549479,19.5917969 81.1845703,19.9039714 81.1845703,20.3779297 L81.1845703,20.3779297 L81.1845703,23.0302734 L76.8779297,23.0302734 L76.8779297,20.3779297 C76.8779297,19.9222005 76.9052734,19.6202799 76.9599609,19.472168 C77.0146484,19.324056 77.1126302,19.2135417 77.2539062,19.140625 C77.4498698,19.0358073 77.6572266,18.9833984 77.8759766,18.9833984 L77.8759766,18.9833984 L78.2109375,18.9833984 L78.2109375,18.7304688 L74.2392578,18.7304688 L74.2392578,18.9833984 L74.5673828,18.9833984 C74.7861328,18.9833984 74.9957682,19.0380859 75.1962891,19.1474609 C75.3375651,19.2294922 75.4309896,19.327474 75.4765625,19.4414062 C75.5358073,19.5917969 75.5654297,19.9039714 75.5654297,20.3779297 L75.5654297,20.3779297 L75.5654297,26.359375 C75.5654297,26.9153646 75.5107422,27.266276 75.4013672,27.4121094 C75.2281901,27.6354167 74.9501953,27.7470703 74.5673828,27.7470703 L74.5673828,27.7470703 L74.2392578,27.7470703 L74.2392578,28 L78.2109375,28 Z"/>
    <path d="M110.210938,28 L110.210938,27.7470703 L109.875977,27.7470703 C109.657227,27.7470703 109.44987,27.6923828 109.253906,27.5830078 C109.108073,27.5009766 109.01237,27.4029948 108.966797,27.2890625 C108.907552,27.1386719 108.87793,26.828776 108.87793,26.359375 L108.87793,26.359375 L108.87793,23.5361328 L113.18457,23.5361328 L113.18457,26.359375 C113.18457,26.9153646 113.127604,27.266276 113.013672,27.4121094 C112.840495,27.6354167 112.564779,27.7470703 112.186523,27.7470703 L112.186523,27.7470703 L111.858398,27.7470703 L111.858398,28 L115.823242,28 L115.823242,27.7470703 L115.495117,27.7470703 C115.276367,27.7470703 115.066732,27.6923828 114.866211,27.5830078 C114.724935,27.5009766 114.63151,27.4029948 114.585938,27.2890625 C114.526693,27.1386719 114.49707,26.828776 114.49707,26.359375 L114.49707,26.359375 L114.49707,20.3779297 C114.49707,19.9222005 114.523275,19.6202799 114.575684,19.472168 C114.628092,19.324056 114.727214,19.2135417 114.873047,19.140625 C115.06901,19.0358073 115.276367,18.9833984 115.495117,18.9833984 L115.495117,18.9833984 L115.823242,18.9833984 L115.823242,18.7304688 L111.858398,18.7304688 L111.858398,18.9833984 L112.186523,18.9833984 C112.405273,18.9833984 112.61263,19.0380859 112.808594,19.1474609 C112.954427,19.2294922 113.05013,19.327474 113.095703,19.4414062 C113.154948,19.5917969 113.18457,19.9039714 113.18457,20.3779297 L113.18457,20.3779297 L113.18457,23.0302734 L108.87793,23.0302734 L108.87793,20.3779297 C108.87793,19.9222005 108.905273,19.6202799 108.959961,19.472168 C109.014648,19.324056 109.11263,19.2135417 109.253906,19.140625 C109.44987,19.0358073 109.657227,18.9833984 109.875977,18.9833984 L109.875977,18.9833984 L110.210938,18.9833984 L110.210938,18.7304688 L106.239258,18.7304688 L106.239258,18.9833984 L106.567383,18.9833984 C106.786133,18.9833984 106.995768,19.0380859 107.196289,19.1474609 C107.337565,19.2294922 107.43099,19.327474 107.476562,19.4414062 C107.535807,19.5917969 107.56543,19.9039714 107.56543,20.3779297 L107.56543,20.3779297 L107.56543,26.359375 C107.56543,26.9153646 107.510742,27.266276 107.401367,27.4121094 C107.22819,27.6354167 106.950195,27.7470703 106.567383,27.7470703 L106.567383,27.7470703 L106.239258,27.7470703 L106.239258,28 L110.210938,28 Z"/>
    <line x1="79.5" y1="44.5" x2="79.5" y2="32.5"/>
    <line x1="79.5" y1="74.5" x2="79.5" y2="62.5"/>
    <path d="M79.0175781,58.2119141 C79.8697917,58.2119141 80.6057943,58.0205078 81.2255859,57.6376953 C81.8453776,57.2548828 82.3876953,56.6510417 82.8525391,55.8261719 L82.8525391,55.8261719 L82.640625,55.6894531 C82.0891927,56.4550781 81.5833333,56.9666341 81.1230469,57.2241211 C80.6627604,57.4816081 80.1318359,57.6103516 79.5302734,57.6103516 C78.8375651,57.6103516 78.2211914,57.4462891 77.6811523,57.1181641 C77.1411133,56.7900391 76.7366536,56.3183594 76.4677734,55.703125 C76.1988932,55.0878906 76.0644531,54.3610026 76.0644531,53.5224609 C76.0644531,52.5061849 76.2068685,51.65625 76.4916992,50.9726562 C76.7765299,50.2890625 77.1673177,49.7911784 77.6640625,49.4790039 C78.1608073,49.1668294 78.7167969,49.0107422 79.3320312,49.0107422 C80.0657552,49.0107422 80.6946615,49.218099 81.21875,49.6328125 C81.7428385,50.047526 82.1461589,50.7265625 82.4287109,51.6699219 L82.4287109,51.6699219 L82.640625,51.6699219 L82.4287109,48.5185547 L82.1894531,48.5185547 C82.1393229,48.7373047 82.055013,48.9082031 81.9365234,49.03125 C81.8453776,49.1178385 81.7382812,49.1611328 81.6152344,49.1611328 C81.5332031,49.1611328 81.3964844,49.1110026 81.2050781,49.0107422 C80.5533854,48.6826172 79.8925781,48.5185547 79.2226562,48.5185547 C78.3613281,48.5185547 77.5672201,48.7316081 76.840332,49.1577148 C76.113444,49.5838216 75.5426432,50.1842448 75.1279297,50.9589844 C74.7132161,51.733724 74.5058594,52.5836589 74.5058594,53.5087891 C74.5058594,54.6572266 74.8203125,55.6552734 75.4492188,56.5029297 C76.2923177,57.6422526 77.4817708,58.2119141 79.0175781,58.2119141 Z"/>
    <line x1="110.5" y1="44.5" x2="110.5" y2="32.5"/>
    <line x1="110.5" y1="74.5" x2="110.5" y2="62.5"/>
    <path d="M110.017578,58.2119141 C110.869792,58.2119141 111.605794,58.0205078 112.225586,57.6376953 C112.845378,57.2548828 113.387695,56.6510417 113.852539,55.8261719 L113.852539,55.8261719 L113.640625,55.6894531 C113.089193,56.4550781 112.583333,56.9666341 112.123047,57.2241211 C111.66276,57.4816081 111.131836,57.6103516 110.530273,57.6103516 C109.837565,57.6103516 109.221191,57.4462891 108.681152,57.1181641 C108.141113,56.7900391 107.736654,56.3183594 107.467773,55.703125 C107.198893,55.0878906 107.064453,54.3610026 107.064453,53.5224609 C107.064453,52.5061849 107.206868,51.65625 107.491699,50.9726562 C107.77653,50.2890625 108.167318,49.7911784 108.664062,49.4790039 C109.160807,49.1668294 109.716797,49.0107422 110.332031,49.0107422 C111.065755,49.0107422 111.694661,49.218099 112.21875,49.6328125 C112.742839,50.047526 113.146159,50.7265625 113.428711,51.6699219 L113.428711,51.6699219 L113.640625,51.6699219 L113.428711,48.5185547 L113.189453,48.5185547 C113.139323,48.7373047 113.055013,48.9082031 112.936523,49.03125 C112.845378,49.1178385 112.738281,49.1611328 112.615234,49.1611328 C112.533203,49.1611328 112.396484,49.1110026 112.205078,49.0107422 C111.553385,48.6826172 110.892578,48.5185547 110.222656,48.5185547 C109.361328,48.5185547 108.56722,48.7316081 107.840332,49.1577148 C107.113444,49.5838216 106.542643,50.1842448 106.12793,50.9589844 C105.713216,51.733724 105.505859,52.5836589 105.505859,53.5087891 C105.505859,54.6572266 105.820312,55.6552734 106.449219,56.5029297 C107.292318,57.6422526 108.481771,58.2119141 110.017578,58.2119141 Z"/>
    <line x1="152.5" y1="54.5" x2="164.5" y2="54.5"/>
    <path d="M142.204102,90 L142.204102,89.7470703 L141.869141,89.7470703 C141.650391,89.7470703 141.440755,89.6923828 141.240234,89.5830078 C141.094401,89.5009766 140.998698,89.4029948 140.953125,89.2890625 C140.89388,89.1386719 140.864258,88.828776 140.864258,88.359375 L140.864258,88.359375 L140.864258,85.4472656 L142.552734,85.4472656 C142.86263,85.4472656 143.096191,85.4894206 143.253418,85.5737305 C143.410645,85.6580404 143.533691,85.7845052 143.622559,85.953125 C143.711426,86.1217448 143.758138,86.3860677 143.762695,86.7460938 L143.762695,86.7460938 L144.015625,86.7460938 L144.015625,83.6083984 L143.762695,83.6083984 C143.703451,84.1142578 143.583822,84.4526367 143.403809,84.6235352 C143.223796,84.7944336 142.940104,84.8798828 142.552734,84.8798828 L142.552734,84.8798828 L140.864258,84.8798828 L140.864258,81.2363281 L142.908203,81.2363281 C143.391276,81.2363281 143.747884,81.281901 143.978027,81.3730469 C144.208171,81.4641927 144.401855,81.6111654 144.559082,81.8139648 C144.716309,82.0167643 144.854167,82.3346354 144.972656,82.7675781 L144.972656,82.7675781 L145.211914,82.7675781 L145.123047,80.7304688 L138.225586,80.7304688 L138.225586,80.9833984 L138.553711,80.9833984 C138.777018,80.9833984 138.986654,81.0380859 139.182617,81.1474609 C139.323893,81.2294922 139.417318,81.327474 139.462891,81.4414062 C139.522135,81.5917969 139.551758,81.9016927 139.551758,82.3710938 L139.551758,82.3710938 L139.551758,88.359375 C139.551758,88.9153646 139.49707,89.266276 139.387695,89.4121094 C139.214518,89.6354167 138.936523,89.7470703 138.553711,89.7470703 L138.553711,89.7470703 L138.225586,89.7470703 L138.225586,90 L142.204102,90 Z"/>
    <path d="M142.210938,28 L142.210938,27.7470703 L141.875977,27.7470703 C141.657227,27.7470703 141.44987,27.6923828 141.253906,27.5830078 C141.108073,27.5009766 141.01237,27.4029948 140.966797,27.2890625 C140.907552,27.1386719 140.87793,26.828776 140.87793,26.359375 L140.87793,26.359375 L140.87793,23.5361328 L145.18457,23.5361328 L145.18457,26.359375 C145.18457,26.9153646 145.127604,27.266276 145.013672,27.4121094 C144.840495,27.6354167 144.564779,27.7470703 144.186523,27.7470703 L144.186523,27.7470703 L143.858398,27.7470703 L143.858398,28 L147.823242,28 L147.823242,27.7470703 L147.495117,27.7470703 C147.276367,27.7470703 147.066732,27.6923828 146.866211,27.5830078 C146.724935,27.5009766 146.63151,27.4029948 146.585938,27.2890625 C146.526693,27.1386719 146.49707,26.828776 146.49707,26.359375 L146.49707,26.359375 L146.49707,20.3779297 C146.49707,19.9222005 146.523275,19.6202799 146.575684,19.472168 C146.628092,19.324056 146.727214,19.2135417 146.873047,19.140625 C147.06901,19.0358073 147.276367,18.9833984 147.495117,18.9833984 L147.495117,18.9833984 L147.823242,18.9833984 L147.823242,18.7304688 L143.858398,18.7304688 L143.858398,18.9833984 L144.186523,18.9833984 C144.405273,18.9833984 144.61263,19.0380859 144.808594,19.1474609 C144.954427,19.2294922 145.05013,19.327474 145.095703,19.4414062 C145.154948,19.5917969 145.18457,19.9039714 145.18457,20.3779297 L145.18457,20.3779297 L145.18457,23.0302734 L140.87793,23.0302734 L140.87793,20.3779297 C140.87793,19.9222005 140.905273,19.6202799 140.959961,19.472168 C141.014648,19.324056 141.11263,19.2135417 141.253906,19.140625 C141.44987,19.0358073 141.657227,18.9833984 141.875977,18.9833984 L141.875977,18.9833984 L142.210938,18.9833984 L142.210938,18.7304688 L138.239258,18.7304688 L138.239258,18.9833984 L138.567383,18.9833984 C138.786133,18.9833984 138.995768,19.0380859 139.196289,19.1474609 C139.337565,19.2294922 139.43099,19.327474 139.476562,19.4414062 C139.535807,19.5917969 139.56543,19.9039714 139.56543,20.3779297 L139.56543,20.3779297 L139.56543,26.359375 C139.56543,26.9153646 139.510742,27.266276 139.401367,27.4121094 C139.22819,27.6354167 138.950195,27.7470703 138.567383,27.7470703 L138.567383,27.7470703 L138.239258,27.7470703 L138.239258,28 L142.210938,28 Z"/>
    <line x1="142.5" y1="44.5" x2="142.5" y2="32.5"/>
    <line x1="142.5" y1="74.5" x2="142.5" y2="62.5"/>
    <path d="M142.017578,58.2119141 C142.869792,58.2119141 143.605794,58.0205078 144.225586,57.6376953 C144.845378,57.2548828 145.387695,56.6510417 145.852539,55.8261719 L145.852539,55.8261719 L145.640625,55.6894531 C145.089193,56.4550781 144.583333,56.9666341 144.123047,57.2241211 C143.66276,57.4816081 143.131836,57.6103516 142.530273,57.6103516 C141.837565,57.6103516 141.221191,57.4462891 140.681152,57.1181641 C140.141113,56.7900391 139.736654,56.3183594 139.467773,55.703125 C139.198893,55.0878906 139.064453,54.3610026 139.064453,53.5224609 C139.064453,52.5061849 139.206868,51.65625 139.491699,50.9726562 C139.77653,50.2890625 140.167318,49.7911784 140.664062,49.4790039 C141.160807,49.1668294 141.716797,49.0107422 142.332031,49.0107422 C143.065755,49.0107422 143.694661,49.218099 144.21875,49.6328125 C144.742839,50.047526 145.146159,50.7265625 145.428711,51.6699219 L145.428711,51.6699219 L145.640625,51.6699219 L145.428711,48.5185547 L145.189453,48.5185547 C145.139323,48.7373047 145.055013,48.9082031 144.936523,49.03125 C144.845378,49.1178385 144.738281,49.1611328 144.615234,49.1611328 C144.533203,49.1611328 144.396484,49.1110026 144.205078,49.0107422 C143.553385,48.6826172 142.892578,48.5185547 142.222656,48.5185547 C141.361328,48.5185547 140.56722,48.7316081 139.840332,49.1577148 C139.113444,49.5838216 138.542643,50.1842448 138.12793,50.9589844 C137.713216,51.733724 137.505859,52.5836589 137.505859,53.5087891 C137.505859,54.6572266 137.820312,55.6552734 138.449219,56.5029297 C139.292318,57.6422526 140.481771,58.2119141 142.017578,58.2119141 Z"/>
</svg>