<?xml version="1.0" encoding="utf-8"?>
<svg xmlns="http://www.w3.org/2000/svg" xmlns:xlink="http://www.w3.org/1999/xlink" version="1.1" viewBox="0 0 280 113">
	<title>Chemical diagram of a carbon-hydrogen-fluorine chain + flourine producing carbon tetraflouride + hydroflouric acid.</title>
	<style type="text/css">
		line{
			stroke: #000;
			stroke-width: 1.5;
		}

		path,
		polygon{
			fill: #000;
			fill-rule: nonzero;
		}
	</style>
	<line x1="45.5" x2="45.5" y1="47.5" y2="35.5"/>
	<line x1="23.5" x2="35.5" y1="57.5" y2="57.5"/>
	<line x1="54.5" x2="66.5" y1="57.5" y2="57.5"/>
	<line x1="84.5" x2="96.5" y1="57.5" y2="57.5"/>
	<line x1="115.5" x2="127.5" y1="57.5" y2="57.5"/>
	<line x1="45.5" x2="45.5" y1="77.5" y2="65.5"/>
	<path d="M45.0175781,61.2119141 C45.8697917,61.2119141 46.6057943,61.0205078 47.2255859,60.6376953 C47.8453776,60.2548828 48.3876953,59.6510417 48.8525391,58.8261719 L48.8525391,58.8261719 L48.640625,58.6894531 C48.0891927,59.4550781 47.5833333,59.9666341 47.1230469,60.2241211 C46.6627604,60.4816081 46.1318359,60.6103516 45.5302734,60.6103516 C44.8375651,60.6103516 44.2211914,60.4462891 43.6811523,60.1181641 C43.1411133,59.7900391 42.7366536,59.3183594 42.4677734,58.703125 C42.1988932,58.0878906 42.0644531,57.3610026 42.0644531,56.5224609 C42.0644531,55.5061849 42.2068685,54.65625 42.4916992,53.9726562 C42.7765299,53.2890625 43.1673177,52.7911784 43.6640625,52.4790039 C44.1608073,52.1668294 44.7167969,52.0107422 45.3320312,52.0107422 C46.0657552,52.0107422 46.6946615,52.218099 47.21875,52.6328125 C47.7428385,53.047526 48.1461589,53.7265625 48.4287109,54.6699219 L48.4287109,54.6699219 L48.640625,54.6699219 L48.4287109,51.5185547 L48.1894531,51.5185547 C48.1393229,51.7373047 48.055013,51.9082031 47.9365234,52.03125 C47.8453776,52.1178385 47.7382812,52.1611328 47.6152344,52.1611328 C47.5332031,52.1611328 47.3964844,52.1110026 47.2050781,52.0107422 C46.5533854,51.6826172 45.8925781,51.5185547 45.2226562,51.5185547 C44.3613281,51.5185547 43.5672201,51.7316081 42.840332,52.1577148 C42.113444,52.5838216 41.5426432,53.1842448 41.1279297,53.9589844 C40.7132161,54.733724 40.5058594,55.5836589 40.5058594,56.5087891 C40.5058594,57.6572266 40.8203125,58.6552734 41.4492187,59.5029297 C42.2923177,60.6422526 43.4817708,61.2119141 45.0175781,61.2119141 Z"/>
	<path d="M44.2041016,93 L44.2041016,92.7470703 L43.8691406,92.7470703 C43.6503906,92.7470703 43.4407552,92.6923828 43.2402344,92.5830078 C43.094401,92.5009766 42.9986979,92.4029948 42.953125,92.2890625 C42.8938802,92.1386719 42.8642578,91.828776 42.8642578,91.359375 L42.8642578,91.359375 L42.8642578,88.4472656 L44.5527344,88.4472656 C44.8626302,88.4472656 45.0961914,88.4894206 45.253418,88.5737305 C45.4106445,88.6580404 45.5336914,88.7845052 45.6225586,88.953125 C45.7114258,89.1217448 45.758138,89.3860677 45.7626953,89.7460938 L45.7626953,89.7460938 L46.015625,89.7460938 L46.015625,86.6083984 L45.7626953,86.6083984 C45.7034505,87.1142578 45.5838216,87.4526367 45.4038086,87.6235352 C45.2237956,87.7944336 44.9401042,87.8798828 44.5527344,87.8798828 L44.5527344,87.8798828 L42.8642578,87.8798828 L42.8642578,84.2363281 L44.9082031,84.2363281 C45.391276,84.2363281 45.7478841,84.281901 45.9780273,84.3730469 C46.2081706,84.4641927 46.4018555,84.6111654 46.559082,84.8139648 C46.7163086,85.0167643 46.8541667,85.3346354 46.9726562,85.7675781 L46.9726562,85.7675781 L47.2119141,85.7675781 L47.1230469,83.7304688 L40.2255859,83.7304688 L40.2255859,83.9833984 L40.5537109,83.9833984 C40.7770182,83.9833984 40.9866536,84.0380859 41.1826172,84.1474609 C41.3238932,84.2294922 41.4173177,84.327474 41.4628906,84.4414062 C41.5221354,84.5917969 41.5517578,84.9016927 41.5517578,85.3710938 L41.5517578,85.3710938 L41.5517578,91.359375 C41.5517578,91.9153646 41.4970703,92.266276 41.3876953,92.4121094 C41.2145182,92.6354167 40.9365234,92.7470703 40.5537109,92.7470703 L40.5537109,92.7470703 L40.2255859,92.7470703 L40.2255859,93 L44.2041016,93 Z"/>
	<path d="M74.2041016,93 L74.2041016,92.7470703 L73.8691406,92.7470703 C73.6503906,92.7470703 73.4407552,92.6923828 73.2402344,92.5830078 C73.094401,92.5009766 72.9986979,92.4029948 72.953125,92.2890625 C72.8938802,92.1386719 72.8642578,91.828776 72.8642578,91.359375 L72.8642578,91.359375 L72.8642578,88.4472656 L74.5527344,88.4472656 C74.8626302,88.4472656 75.0961914,88.4894206 75.253418,88.5737305 C75.4106445,88.6580404 75.5336914,88.7845052 75.6225586,88.953125 C75.7114258,89.1217448 75.758138,89.3860677 75.7626953,89.7460938 L75.7626953,89.7460938 L76.015625,89.7460938 L76.015625,86.6083984 L75.7626953,86.6083984 C75.7034505,87.1142578 75.5838216,87.4526367 75.4038086,87.6235352 C75.2237956,87.7944336 74.9401042,87.8798828 74.5527344,87.8798828 L74.5527344,87.8798828 L72.8642578,87.8798828 L72.8642578,84.2363281 L74.9082031,84.2363281 C75.391276,84.2363281 75.7478841,84.281901 75.9780273,84.3730469 C76.2081706,84.4641927 76.4018555,84.6111654 76.559082,84.8139648 C76.7163086,85.0167643 76.8541667,85.3346354 76.9726562,85.7675781 L76.9726562,85.7675781 L77.2119141,85.7675781 L77.1230469,83.7304688 L70.2255859,83.7304688 L70.2255859,83.9833984 L70.5537109,83.9833984 C70.7770182,83.9833984 70.9866536,84.0380859 71.1826172,84.1474609 C71.3238932,84.2294922 71.4173177,84.327474 71.4628906,84.4414062 C71.5221354,84.5917969 71.5517578,84.9016927 71.5517578,85.3710938 L71.5517578,85.3710938 L71.5517578,91.359375 C71.5517578,91.9153646 71.4970703,92.266276 71.3876953,92.4121094 C71.2145182,92.6354167 70.9365234,92.7470703 70.5537109,92.7470703 L70.5537109,92.7470703 L70.2255859,92.7470703 L70.2255859,93 L74.2041016,93 Z"/>
	<path d="M105.204102,93 L105.204102,92.7470703 L104.869141,92.7470703 C104.650391,92.7470703 104.440755,92.6923828 104.240234,92.5830078 C104.094401,92.5009766 103.998698,92.4029948 103.953125,92.2890625 C103.89388,92.1386719 103.864258,91.828776 103.864258,91.359375 L103.864258,91.359375 L103.864258,88.4472656 L105.552734,88.4472656 C105.86263,88.4472656 106.096191,88.4894206 106.253418,88.5737305 C106.410645,88.6580404 106.533691,88.7845052 106.622559,88.953125 C106.711426,89.1217448 106.758138,89.3860677 106.762695,89.7460938 L106.762695,89.7460938 L107.015625,89.7460938 L107.015625,86.6083984 L106.762695,86.6083984 C106.703451,87.1142578 106.583822,87.4526367 106.403809,87.6235352 C106.223796,87.7944336 105.940104,87.8798828 105.552734,87.8798828 L105.552734,87.8798828 L103.864258,87.8798828 L103.864258,84.2363281 L105.908203,84.2363281 C106.391276,84.2363281 106.747884,84.281901 106.978027,84.3730469 C107.208171,84.4641927 107.401855,84.6111654 107.559082,84.8139648 C107.716309,85.0167643 107.854167,85.3346354 107.972656,85.7675781 L107.972656,85.7675781 L108.211914,85.7675781 L108.123047,83.7304688 L101.225586,83.7304688 L101.225586,83.9833984 L101.553711,83.9833984 C101.777018,83.9833984 101.986654,84.0380859 102.182617,84.1474609 C102.323893,84.2294922 102.417318,84.327474 102.462891,84.4414062 C102.522135,84.5917969 102.551758,84.9016927 102.551758,85.3710938 L102.551758,85.3710938 L102.551758,91.359375 C102.551758,91.9153646 102.49707,92.266276 102.387695,92.4121094 C102.214518,92.6354167 101.936523,92.7470703 101.553711,92.7470703 L101.553711,92.7470703 L101.225586,92.7470703 L101.225586,93 L105.204102,93 Z"/>
	<path d="M44.2109375,31 L44.2109375,30.7470703 L43.8759766,30.7470703 C43.6572266,30.7470703 43.4498698,30.6923828 43.2539062,30.5830078 C43.1080729,30.5009766 43.0123698,30.4029948 42.9667969,30.2890625 C42.9075521,30.1386719 42.8779297,29.828776 42.8779297,29.359375 L42.8779297,29.359375 L42.8779297,26.5361328 L47.1845703,26.5361328 L47.1845703,29.359375 C47.1845703,29.9153646 47.1276042,30.266276 47.0136719,30.4121094 C46.8404948,30.6354167 46.5647786,30.7470703 46.1865234,30.7470703 L46.1865234,30.7470703 L45.8583984,30.7470703 L45.8583984,31 L49.8232422,31 L49.8232422,30.7470703 L49.4951172,30.7470703 C49.2763672,30.7470703 49.0667318,30.6923828 48.8662109,30.5830078 C48.7249349,30.5009766 48.6315104,30.4029948 48.5859375,30.2890625 C48.5266927,30.1386719 48.4970703,29.828776 48.4970703,29.359375 L48.4970703,29.359375 L48.4970703,23.3779297 C48.4970703,22.9222005 48.5232747,22.6202799 48.5756836,22.472168 C48.6280924,22.324056 48.7272135,22.2135417 48.8730469,22.140625 C49.0690104,22.0358073 49.2763672,21.9833984 49.4951172,21.9833984 L49.4951172,21.9833984 L49.8232422,21.9833984 L49.8232422,21.7304688 L45.8583984,21.7304688 L45.8583984,21.9833984 L46.1865234,21.9833984 C46.4052734,21.9833984 46.6126302,22.0380859 46.8085937,22.1474609 C46.9544271,22.2294922 47.0501302,22.327474 47.0957031,22.4414062 C47.1549479,22.5917969 47.1845703,22.9039714 47.1845703,23.3779297 L47.1845703,23.3779297 L47.1845703,26.0302734 L42.8779297,26.0302734 L42.8779297,23.3779297 C42.8779297,22.9222005 42.9052734,22.6202799 42.9599609,22.472168 C43.0146484,22.324056 43.1126302,22.2135417 43.2539062,22.140625 C43.4498698,22.0358073 43.6572266,21.9833984 43.8759766,21.9833984 L43.8759766,21.9833984 L44.2109375,21.9833984 L44.2109375,21.7304688 L40.2392578,21.7304688 L40.2392578,21.9833984 L40.5673828,21.9833984 C40.7861328,21.9833984 40.9957682,22.0380859 41.1962891,22.1474609 C41.3375651,22.2294922 41.4309896,22.327474 41.4765625,22.4414062 C41.5358073,22.5917969 41.5654297,22.9039714 41.5654297,23.3779297 L41.5654297,23.3779297 L41.5654297,29.359375 C41.5654297,29.9153646 41.5107422,30.266276 41.4013672,30.4121094 C41.2281901,30.6354167 40.9501953,30.7470703 40.5673828,30.7470703 L40.5673828,30.7470703 L40.2392578,30.7470703 L40.2392578,31 L44.2109375,31 Z"/>
	<path d="M74.2109375,31 L74.2109375,30.7470703 L73.8759766,30.7470703 C73.6572266,30.7470703 73.4498698,30.6923828 73.2539062,30.5830078 C73.1080729,30.5009766 73.0123698,30.4029948 72.9667969,30.2890625 C72.9075521,30.1386719 72.8779297,29.828776 72.8779297,29.359375 L72.8779297,29.359375 L72.8779297,26.5361328 L77.1845703,26.5361328 L77.1845703,29.359375 C77.1845703,29.9153646 77.1276042,30.266276 77.0136719,30.4121094 C76.8404948,30.6354167 76.5647786,30.7470703 76.1865234,30.7470703 L76.1865234,30.7470703 L75.8583984,30.7470703 L75.8583984,31 L79.8232422,31 L79.8232422,30.7470703 L79.4951172,30.7470703 C79.2763672,30.7470703 79.0667318,30.6923828 78.8662109,30.5830078 C78.7249349,30.5009766 78.6315104,30.4029948 78.5859375,30.2890625 C78.5266927,30.1386719 78.4970703,29.828776 78.4970703,29.359375 L78.4970703,29.359375 L78.4970703,23.3779297 C78.4970703,22.9222005 78.5232747,22.6202799 78.5756836,22.472168 C78.6280924,22.324056 78.7272135,22.2135417 78.8730469,22.140625 C79.0690104,22.0358073 79.2763672,21.9833984 79.4951172,21.9833984 L79.4951172,21.9833984 L79.8232422,21.9833984 L79.8232422,21.7304688 L75.8583984,21.7304688 L75.8583984,21.9833984 L76.1865234,21.9833984 C76.4052734,21.9833984 76.6126302,22.0380859 76.8085937,22.1474609 C76.9544271,22.2294922 77.0501302,22.327474 77.0957031,22.4414062 C77.1549479,22.5917969 77.1845703,22.9039714 77.1845703,23.3779297 L77.1845703,23.3779297 L77.1845703,26.0302734 L72.8779297,26.0302734 L72.8779297,23.3779297 C72.8779297,22.9222005 72.9052734,22.6202799 72.9599609,22.472168 C73.0146484,22.324056 73.1126302,22.2135417 73.2539062,22.140625 C73.4498698,22.0358073 73.6572266,21.9833984 73.8759766,21.9833984 L73.8759766,21.9833984 L74.2109375,21.9833984 L74.2109375,21.7304688 L70.2392578,21.7304688 L70.2392578,21.9833984 L70.5673828,21.9833984 C70.7861328,21.9833984 70.9957682,22.0380859 71.1962891,22.1474609 C71.3375651,22.2294922 71.4309896,22.327474 71.4765625,22.4414062 C71.5358073,22.5917969 71.5654297,22.9039714 71.5654297,23.3779297 L71.5654297,23.3779297 L71.5654297,29.359375 C71.5654297,29.9153646 71.5107422,30.266276 71.4013672,30.4121094 C71.2281901,30.6354167 70.9501953,30.7470703 70.5673828,30.7470703 L70.5673828,30.7470703 L70.2392578,30.7470703 L70.2392578,31 L74.2109375,31 Z"/>
	<path d="M105.210937,31 L105.210937,30.7470703 L104.875977,30.7470703 C104.657227,30.7470703 104.44987,30.6923828 104.253906,30.5830078 C104.108073,30.5009766 104.01237,30.4029948 103.966797,30.2890625 C103.907552,30.1386719 103.87793,29.828776 103.87793,29.359375 L103.87793,29.359375 L103.87793,26.5361328 L108.18457,26.5361328 L108.18457,29.359375 C108.18457,29.9153646 108.127604,30.266276 108.013672,30.4121094 C107.840495,30.6354167 107.564779,30.7470703 107.186523,30.7470703 L107.186523,30.7470703 L106.858398,30.7470703 L106.858398,31 L110.823242,31 L110.823242,30.7470703 L110.495117,30.7470703 C110.276367,30.7470703 110.066732,30.6923828 109.866211,30.5830078 C109.724935,30.5009766 109.63151,30.4029948 109.585937,30.2890625 C109.526693,30.1386719 109.49707,29.828776 109.49707,29.359375 L109.49707,29.359375 L109.49707,23.3779297 C109.49707,22.9222005 109.523275,22.6202799 109.575684,22.472168 C109.628092,22.324056 109.727214,22.2135417 109.873047,22.140625 C110.06901,22.0358073 110.276367,21.9833984 110.495117,21.9833984 L110.495117,21.9833984 L110.823242,21.9833984 L110.823242,21.7304688 L106.858398,21.7304688 L106.858398,21.9833984 L107.186523,21.9833984 C107.405273,21.9833984 107.61263,22.0380859 107.808594,22.1474609 C107.954427,22.2294922 108.05013,22.327474 108.095703,22.4414062 C108.154948,22.5917969 108.18457,22.9039714 108.18457,23.3779297 L108.18457,23.3779297 L108.18457,26.0302734 L103.87793,26.0302734 L103.87793,23.3779297 C103.87793,22.9222005 103.905273,22.6202799 103.959961,22.472168 C104.014648,22.324056 104.11263,22.2135417 104.253906,22.140625 C104.44987,22.0358073 104.657227,21.9833984 104.875977,21.9833984 L104.875977,21.9833984 L105.210937,21.9833984 L105.210937,21.7304688 L101.239258,21.7304688 L101.239258,21.9833984 L101.567383,21.9833984 C101.786133,21.9833984 101.995768,22.0380859 102.196289,22.1474609 C102.337565,22.2294922 102.43099,22.327474 102.476562,22.4414062 C102.535807,22.5917969 102.56543,22.9039714 102.56543,23.3779297 L102.56543,23.3779297 L102.56543,29.359375 C102.56543,29.9153646 102.510742,30.266276 102.401367,30.4121094 C102.22819,30.6354167 101.950195,30.7470703 101.567383,30.7470703 L101.567383,30.7470703 L101.239258,30.7470703 L101.239258,31 L105.210937,31 Z"/>
	<line x1="75.5" x2="75.5" y1="47.5" y2="35.5"/>
	<line x1="75.5" x2="75.5" y1="77.5" y2="65.5"/>
	<path d="M75.0175781,61.2119141 C75.8697917,61.2119141 76.6057943,61.0205078 77.2255859,60.6376953 C77.8453776,60.2548828 78.3876953,59.6510417 78.8525391,58.8261719 L78.8525391,58.8261719 L78.640625,58.6894531 C78.0891927,59.4550781 77.5833333,59.9666341 77.1230469,60.2241211 C76.6627604,60.4816081 76.1318359,60.6103516 75.5302734,60.6103516 C74.8375651,60.6103516 74.2211914,60.4462891 73.6811523,60.1181641 C73.1411133,59.7900391 72.7366536,59.3183594 72.4677734,58.703125 C72.1988932,58.0878906 72.0644531,57.3610026 72.0644531,56.5224609 C72.0644531,55.5061849 72.2068685,54.65625 72.4916992,53.9726562 C72.7765299,53.2890625 73.1673177,52.7911784 73.6640625,52.4790039 C74.1608073,52.1668294 74.7167969,52.0107422 75.3320312,52.0107422 C76.0657552,52.0107422 76.6946615,52.218099 77.21875,52.6328125 C77.7428385,53.047526 78.1461589,53.7265625 78.4287109,54.6699219 L78.4287109,54.6699219 L78.640625,54.6699219 L78.4287109,51.5185547 L78.1894531,51.5185547 C78.1393229,51.7373047 78.055013,51.9082031 77.9365234,52.03125 C77.8453776,52.1178385 77.7382812,52.1611328 77.6152344,52.1611328 C77.5332031,52.1611328 77.3964844,52.1110026 77.2050781,52.0107422 C76.5533854,51.6826172 75.8925781,51.5185547 75.2226562,51.5185547 C74.3613281,51.5185547 73.5672201,51.7316081 72.840332,52.1577148 C72.113444,52.5838216 71.5426432,53.1842448 71.1279297,53.9589844 C70.7132161,54.733724 70.5058594,55.5836589 70.5058594,56.5087891 C70.5058594,57.6572266 70.8203125,58.6552734 71.4492187,59.5029297 C72.2923177,60.6422526 73.4817708,61.2119141 75.0175781,61.2119141 Z"/>
	<line x1="105.5" x2="105.5" y1="47.5" y2="35.5"/>
	<line x1="105.5" x2="105.5" y1="77.5" y2="65.5"/>
	<path d="M105.017578,61.2119141 C105.869792,61.2119141 106.605794,61.0205078 107.225586,60.6376953 C107.845378,60.2548828 108.387695,59.6510417 108.852539,58.8261719 L108.852539,58.8261719 L108.640625,58.6894531 C108.089193,59.4550781 107.583333,59.9666341 107.123047,60.2241211 C106.66276,60.4816081 106.131836,60.6103516 105.530273,60.6103516 C104.837565,60.6103516 104.221191,60.4462891 103.681152,60.1181641 C103.141113,59.7900391 102.736654,59.3183594 102.467773,58.703125 C102.198893,58.0878906 102.064453,57.3610026 102.064453,56.5224609 C102.064453,55.5061849 102.206868,54.65625 102.491699,53.9726562 C102.77653,53.2890625 103.167318,52.7911784 103.664062,52.4790039 C104.160807,52.1668294 104.716797,52.0107422 105.332031,52.0107422 C106.065755,52.0107422 106.694661,52.218099 107.21875,52.6328125 C107.742839,53.047526 108.146159,53.7265625 108.428711,54.6699219 L108.428711,54.6699219 L108.640625,54.6699219 L108.428711,51.5185547 L108.189453,51.5185547 C108.139323,51.7373047 108.055013,51.9082031 107.936523,52.03125 C107.845378,52.1178385 107.738281,52.1611328 107.615234,52.1611328 C107.533203,52.1611328 107.396484,52.1110026 107.205078,52.0107422 C106.553385,51.6826172 105.892578,51.5185547 105.222656,51.5185547 C104.361328,51.5185547 103.56722,51.7316081 102.840332,52.1577148 C102.113444,52.5838216 101.542643,53.1842448 101.12793,53.9589844 C100.713216,54.733724 100.505859,55.5836589 100.505859,56.5087891 C100.505859,57.6572266 100.820312,58.6552734 101.449219,59.5029297 C102.292318,60.6422526 103.481771,61.2119141 105.017578,61.2119141 Z"/>
	<path d="M177.204102,61 L177.204102,60.7470703 L176.869141,60.7470703 C176.650391,60.7470703 176.440755,60.6923828 176.240234,60.5830078 C176.094401,60.5009766 175.998698,60.4029948 175.953125,60.2890625 C175.89388,60.1386719 175.864258,59.828776 175.864258,59.359375 L175.864258,59.359375 L175.864258,56.4472656 L177.552734,56.4472656 C177.86263,56.4472656 178.096191,56.4894206 178.253418,56.5737305 C178.410645,56.6580404 178.533691,56.7845052 178.622559,56.953125 C178.711426,57.1217448 178.758138,57.3860677 178.762695,57.7460938 L178.762695,57.7460938 L179.015625,57.7460938 L179.015625,54.6083984 L178.762695,54.6083984 C178.703451,55.1142578 178.583822,55.4526367 178.403809,55.6235352 C178.223796,55.7944336 177.940104,55.8798828 177.552734,55.8798828 L177.552734,55.8798828 L175.864258,55.8798828 L175.864258,52.2363281 L177.908203,52.2363281 C178.391276,52.2363281 178.747884,52.281901 178.978027,52.3730469 C179.208171,52.4641927 179.401855,52.6111654 179.559082,52.8139648 C179.716309,53.0167643 179.854167,53.3346354 179.972656,53.7675781 L179.972656,53.7675781 L180.211914,53.7675781 L180.123047,51.7304688 L173.225586,51.7304688 L173.225586,51.9833984 L173.553711,51.9833984 C173.777018,51.9833984 173.986654,52.0380859 174.182617,52.1474609 C174.323893,52.2294922 174.417318,52.327474 174.462891,52.4414062 C174.522135,52.5917969 174.551758,52.9016927 174.551758,53.3710938 L174.551758,53.3710938 L174.551758,59.359375 C174.551758,59.9153646 174.49707,60.266276 174.387695,60.4121094 C174.214518,60.6354167 173.936523,60.7470703 173.553711,60.7470703 L173.553711,60.7470703 L173.225586,60.7470703 L173.225586,61 L177.204102,61 Z"/>
	<path d="M208.017578,61.2119141 C208.869792,61.2119141 209.605794,61.0205078 210.225586,60.6376953 C210.845378,60.2548828 211.387695,59.6510417 211.852539,58.8261719 L211.852539,58.8261719 L211.640625,58.6894531 C211.089193,59.4550781 210.583333,59.9666341 210.123047,60.2241211 C209.66276,60.4816081 209.131836,60.6103516 208.530273,60.6103516 C207.837565,60.6103516 207.221191,60.4462891 206.681152,60.1181641 C206.141113,59.7900391 205.736654,59.3183594 205.467773,58.703125 C205.198893,58.0878906 205.064453,57.3610026 205.064453,56.5224609 C205.064453,55.5061849 205.206868,54.65625 205.491699,53.9726562 C205.77653,53.2890625 206.167318,52.7911784 206.664062,52.4790039 C207.160807,52.1668294 207.716797,52.0107422 208.332031,52.0107422 C209.065755,52.0107422 209.694661,52.218099 210.21875,52.6328125 C210.742839,53.047526 211.146159,53.7265625 211.428711,54.6699219 L211.428711,54.6699219 L211.640625,54.6699219 L211.428711,51.5185547 L211.189453,51.5185547 C211.139323,51.7373047 211.055013,51.9082031 210.936523,52.03125 C210.845378,52.1178385 210.738281,52.1611328 210.615234,52.1611328 C210.533203,52.1611328 210.396484,52.1110026 210.205078,52.0107422 C209.553385,51.6826172 208.892578,51.5185547 208.222656,51.5185547 C207.361328,51.5185547 206.56722,51.7316081 205.840332,52.1577148 C205.113444,52.5838216 204.542643,53.1842448 204.12793,53.9589844 C203.713216,54.733724 203.505859,55.5836589 203.505859,56.5087891 C203.505859,57.6572266 203.820312,58.6552734 204.449219,59.5029297 C205.292318,60.6422526 206.481771,61.2119141 208.017578,61.2119141 Z M216.541992,61 L216.541992,60.7470703 L216.207031,60.7470703 C215.988281,60.7470703 215.778646,60.6923828 215.578125,60.5830078 C215.432292,60.5009766 215.336589,60.4029948 215.291016,60.2890625 C215.231771,60.1386719 215.202148,59.828776 215.202148,59.359375 L215.202148,59.359375 L215.202148,56.4472656 L216.890625,56.4472656 C217.200521,56.4472656 217.434082,56.4894206 217.591309,56.5737305 C217.748535,56.6580404 217.871582,56.7845052 217.960449,56.953125 C218.049316,57.1217448 218.096029,57.3860677 218.100586,57.7460938 L218.100586,57.7460938 L218.353516,57.7460938 L218.353516,54.6083984 L218.100586,54.6083984 C218.041341,55.1142578 217.921712,55.4526367 217.741699,55.6235352 C217.561686,55.7944336 217.277995,55.8798828 216.890625,55.8798828 L216.890625,55.8798828 L215.202148,55.8798828 L215.202148,52.2363281 L217.246094,52.2363281 C217.729167,52.2363281 218.085775,52.281901 218.315918,52.3730469 C218.546061,52.4641927 218.739746,52.6111654 218.896973,52.8139648 C219.054199,53.0167643 219.192057,53.3346354 219.310547,53.7675781 L219.310547,53.7675781 L219.549805,53.7675781 L219.460937,51.7304688 L212.563477,51.7304688 L212.563477,51.9833984 L212.891602,51.9833984 C213.114909,51.9833984 213.324544,52.0380859 213.520508,52.1474609 C213.661784,52.2294922 213.755208,52.327474 213.800781,52.4414062 C213.860026,52.5917969 213.889648,52.9016927 213.889648,53.3710938 L213.889648,53.3710938 L213.889648,59.359375 C213.889648,59.9153646 213.834961,60.266276 213.725586,60.4121094 C213.552409,60.6354167 213.274414,60.7470703 212.891602,60.7470703 L212.891602,60.7470703 L212.563477,60.7470703 L212.563477,61 L216.541992,61 Z"/>
	<path d="M247.210937,61 L247.210937,60.7470703 L246.875977,60.7470703 C246.657227,60.7470703 246.44987,60.6923828 246.253906,60.5830078 C246.108073,60.5009766 246.01237,60.4029948 245.966797,60.2890625 C245.907552,60.1386719 245.87793,59.828776 245.87793,59.359375 L245.87793,59.359375 L245.87793,56.5361328 L250.18457,56.5361328 L250.18457,59.359375 C250.18457,59.9153646 250.127604,60.266276 250.013672,60.4121094 C249.840495,60.6354167 249.564779,60.7470703 249.186523,60.7470703 L249.186523,60.7470703 L248.858398,60.7470703 L248.858398,61 L252.823242,61 L252.823242,60.7470703 L252.495117,60.7470703 C252.276367,60.7470703 252.066732,60.6923828 251.866211,60.5830078 C251.724935,60.5009766 251.63151,60.4029948 251.585937,60.2890625 C251.526693,60.1386719 251.49707,59.828776 251.49707,59.359375 L251.49707,59.359375 L251.49707,53.3779297 C251.49707,52.9222005 251.523275,52.6202799 251.575684,52.472168 C251.628092,52.324056 251.727214,52.2135417 251.873047,52.140625 C252.06901,52.0358073 252.276367,51.9833984 252.495117,51.9833984 L252.495117,51.9833984 L252.823242,51.9833984 L252.823242,51.7304688 L248.858398,51.7304688 L248.858398,51.9833984 L249.186523,51.9833984 C249.405273,51.9833984 249.61263,52.0380859 249.808594,52.1474609 C249.954427,52.2294922 250.05013,52.327474 250.095703,52.4414062 C250.154948,52.5917969 250.18457,52.9039714 250.18457,53.3779297 L250.18457,53.3779297 L250.18457,56.0302734 L245.87793,56.0302734 L245.87793,53.3779297 C245.87793,52.9222005 245.905273,52.6202799 245.959961,52.472168 C246.014648,52.324056 246.11263,52.2135417 246.253906,52.140625 C246.44987,52.0358073 246.657227,51.9833984 246.875977,51.9833984 L246.875977,51.9833984 L247.210937,51.9833984 L247.210937,51.7304688 L243.239258,51.7304688 L243.239258,51.9833984 L243.567383,51.9833984 C243.786133,51.9833984 243.995768,52.0380859 244.196289,52.1474609 C244.337565,52.2294922 244.43099,52.327474 244.476562,52.4414062 C244.535807,52.5917969 244.56543,52.9039714 244.56543,53.3779297 L244.56543,53.3779297 L244.56543,59.359375 C244.56543,59.9153646 244.510742,60.266276 244.401367,60.4121094 C244.22819,60.6354167 243.950195,60.7470703 243.567383,60.7470703 L243.567383,60.7470703 L243.239258,60.7470703 L243.239258,61 L247.210937,61 Z M257.314453,61 L257.314453,60.7470703 L256.979492,60.7470703 C256.760742,60.7470703 256.551107,60.6923828 256.350586,60.5830078 C256.204753,60.5009766 256.109049,60.4029948 256.063477,60.2890625 C256.004232,60.1386719 255.974609,59.828776 255.974609,59.359375 L255.974609,59.359375 L255.974609,56.4472656 L257.663086,56.4472656 C257.972982,56.4472656 258.206543,56.4894206 258.36377,56.5737305 C258.520996,56.6580404 258.644043,56.7845052 258.73291,56.953125 C258.821777,57.1217448 258.86849,57.3860677 258.873047,57.7460938 L258.873047,57.7460938 L259.125977,57.7460938 L259.125977,54.6083984 L258.873047,54.6083984 C258.813802,55.1142578 258.694173,55.4526367 258.51416,55.6235352 C258.334147,55.7944336 258.050456,55.8798828 257.663086,55.8798828 L257.663086,55.8798828 L255.974609,55.8798828 L255.974609,52.2363281 L258.018555,52.2363281 C258.501628,52.2363281 258.858236,52.281901 259.088379,52.3730469 C259.318522,52.4641927 259.512207,52.6111654 259.669434,52.8139648 C259.82666,53.0167643 259.964518,53.3346354 260.083008,53.7675781 L260.083008,53.7675781 L260.322266,53.7675781 L260.233398,51.7304688 L253.335937,51.7304688 L253.335937,51.9833984 L253.664062,51.9833984 C253.88737,51.9833984 254.097005,52.0380859 254.292969,52.1474609 C254.434245,52.2294922 254.527669,52.327474 254.573242,52.4414062 C254.632487,52.5917969 254.662109,52.9016927 254.662109,53.3710938 L254.662109,53.3710938 L254.662109,59.359375 C254.662109,59.9153646 254.607422,60.266276 254.498047,60.4121094 C254.32487,60.6354167 254.046875,60.7470703 253.664062,60.7470703 L253.664062,60.7470703 L253.335937,60.7470703 L253.335937,61 L257.314453,61 Z"/>
	<path d="M183.296875,64 L183.667969,62.9804688 L183.523437,62.9804688 C183.455729,63.0976562 183.376302,63.188151 183.285156,63.2519531 C183.19401,63.3157552 183.091797,63.3580729 182.978516,63.3789062 C182.865234,63.3997396 182.667969,63.4101562 182.386719,63.4101562 L182.386719,63.4101562 L181.003906,63.4101562 C181.165365,63.2643229 181.570312,62.8372396 182.21875,62.1289062 C182.651042,61.6575521 182.963542,61.2109375 183.15625,60.7890625 C183.28125,60.5208333 183.34375,60.2526042 183.34375,59.984375 C183.34375,59.609375 183.19987,59.2838542 182.912109,59.0078125 C182.624349,58.7317708 182.265625,58.59375 181.835937,58.59375 C181.432292,58.59375 181.095703,58.7226562 180.826172,58.9804688 C180.556641,59.2382812 180.389323,59.6080729 180.324219,60.0898438 L180.324219,60.0898438 L180.46875,60.0898438 C180.567708,59.7955729 180.720703,59.5722656 180.927734,59.4199219 C181.134766,59.2675781 181.36849,59.1914062 181.628906,59.1914062 C181.915365,59.1914062 182.161458,59.2994792 182.367187,59.515625 C182.572917,59.7317708 182.675781,60.0078125 182.675781,60.34375 C182.675781,60.7838542 182.488281,61.2695312 182.113281,61.8007812 C181.738281,62.3320312 181.091146,63.0169271 180.171875,63.8554688 L180.171875,63.8554688 L180.171875,64 L183.296875,64 Z"/>
	<path d="M222.011719,64 L222.011719,62.6015625 L222.722656,62.6015625 L222.722656,62.046875 L222.011719,62.046875 L222.011719,58.59375 L221.582031,58.59375 L219.125,62.1015625 L219.125,62.6015625 L221.367187,62.6015625 L221.367187,64 L222.011719,64 Z M221.367187,62.046875 L219.507812,62.046875 L221.367187,59.4179688 L221.367187,62.046875 Z"/>
	<path d="M137.664062,62.21875 C137.903646,62.21875 138.108073,62.1341146 138.277344,61.9648438 C138.446615,61.7955729 138.53125,61.5911458 138.53125,61.3515625 C138.53125,61.1119792 138.447917,60.9075521 138.28125,60.7382812 C138.114583,60.5690104 137.908854,60.484375 137.664062,60.484375 C137.424479,60.484375 137.220052,60.5677083 137.050781,60.734375 C136.88151,60.9010417 136.796875,61.1067708 136.796875,61.3515625 C136.796875,61.5911458 136.88151,61.7955729 137.050781,61.9648438 C137.220052,62.1341146 137.424479,62.21875 137.664062,62.21875 Z M143,62.21875 C143.239583,62.21875 143.44401,62.1341146 143.613281,61.9648438 C143.782552,61.7955729 143.867187,61.5911458 143.867187,61.3515625 C143.867187,61.1119792 143.782552,60.9075521 143.613281,60.7382812 C143.44401,60.5690104 143.239583,60.484375 143,60.484375 C142.760417,60.484375 142.55599,60.5677083 142.386719,60.734375 C142.217448,60.9010417 142.132812,61.1067708 142.132812,61.3515625 C142.132812,61.5911458 142.217448,61.7955729 142.386719,61.9648438 C142.55599,62.1341146 142.760417,62.21875 143,62.21875 Z M148.335937,62.21875 C148.575521,62.21875 148.779948,62.1341146 148.949219,61.9648438 C149.11849,61.7955729 149.203125,61.5911458 149.203125,61.3515625 C149.203125,61.1119792 149.11849,60.9075521 148.949219,60.7382812 C148.779948,60.5690104 148.575521,60.484375 148.335937,60.484375 C148.091146,60.484375 147.885417,60.5677083 147.71875,60.734375 C147.552083,60.9010417 147.46875,61.1067708 147.46875,61.3515625 C147.46875,61.5911458 147.553385,61.7955729 147.722656,61.9648438 C147.891927,62.1341146 148.096354,62.21875 148.335937,62.21875 Z"/>
	<polygon points="162.204102 62.0361328 162.204102 58.625 165.62207 58.625 165.62207 58.0644531 162.204102 58.0644531 162.204102 54.6669922 161.657227 54.6669922 161.657227 58.0644531 158.25293 58.0644531 158.25293 58.625 161.657227 58.625 161.657227 62.0361328"/>
	<polygon points="234.204102 62.0361328 234.204102 58.625 237.62207 58.625 237.62207 58.0644531 234.204102 58.0644531 234.204102 54.6669922 233.657227 54.6669922 233.657227 58.0644531 230.25293 58.0644531 230.25293 58.625 233.657227 58.625 233.657227 62.0361328"/>
	<path d="M196.864258,60.003418 C197.410156,59.394043 197.879883,58.931722 198.273437,58.6164551 C198.666992,58.3011882 199.073242,58.0419922 199.492187,57.8388672 L199.492187,57.8388672 L199.492187,57.5532227 C199.128255,57.3966471 198.741048,57.15861 198.330566,56.8391113 C197.920085,56.5196126 197.433431,56.0530599 196.870605,55.4394531 L196.870605,55.4394531 L196.388184,55.4394531 C196.637858,55.9388021 196.826172,56.2879232 196.953125,56.4868164 C197.080078,56.6857096 197.304362,56.9903971 197.625977,57.4008789 L197.625977,57.4008789 L187.501465,57.4008789 L187.501465,58.0419922 L197.625977,58.0419922 C197.190104,58.4990234 196.773275,59.152832 196.375488,60.003418 L196.375488,60.003418 L196.864258,60.003418 Z"/>
</svg>
