<?xml version="1.0" encoding="utf-8"?>
<svg xmlns="http://www.w3.org/2000/svg" xmlns:xlink="http://www.w3.org/1999/xlink" version="1.1" viewBox="0 0 330 77">
	<title>Chemical diagram comparing carbon-chain molecules to a silicone type chain</title>
	<style type="text/css">
		line{
			stroke: #000;
			stroke-width: 1.5;
		}

		path{
			fill: #000;
			fill-rule: nonzero;
		}
	</style>
	<line x1="39.5" x2="39.5" y1="30.5" y2="18.5"/>
	<line x1="17.5" x2="29.5" y1="40.5" y2="40.5"/>
	<line x1="48.5" x2="60.5" y1="40.5" y2="40.5"/>
	<line x1="78.5" x2="90.5" y1="40.5" y2="40.5"/>
	<line x1="109.5" x2="121.5" y1="40.5" y2="40.5"/>
	<line x1="154.5" x2="166.5" y1="39.5" y2="39.5"/>
	<line x1="187.5" x2="199.5" y1="39.5" y2="39.5"/>
	<line x1="217.5" x2="229.5" y1="39.5" y2="39.5"/>
	<line x1="39.5" x2="39.5" y1="60.5" y2="48.5"/>
	<path d="M39.0175781,44.2119141 C39.8697917,44.2119141 40.6057943,44.0205078 41.2255859,43.6376953 C41.8453776,43.2548828 42.3876953,42.6510417 42.8525391,41.8261719 L42.8525391,41.8261719 L42.640625,41.6894531 C42.0891927,42.4550781 41.5833333,42.9666341 41.1230469,43.2241211 C40.6627604,43.4816081 40.1318359,43.6103516 39.5302734,43.6103516 C38.8375651,43.6103516 38.2211914,43.4462891 37.6811523,43.1181641 C37.1411133,42.7900391 36.7366536,42.3183594 36.4677734,41.703125 C36.1988932,41.0878906 36.0644531,40.3610026 36.0644531,39.5224609 C36.0644531,38.5061849 36.2068685,37.65625 36.4916992,36.9726562 C36.7765299,36.2890625 37.1673177,35.7911784 37.6640625,35.4790039 C38.1608073,35.1668294 38.7167969,35.0107422 39.3320312,35.0107422 C40.0657552,35.0107422 40.6946615,35.218099 41.21875,35.6328125 C41.7428385,36.047526 42.1461589,36.7265625 42.4287109,37.6699219 L42.4287109,37.6699219 L42.640625,37.6699219 L42.4287109,34.5185547 L42.1894531,34.5185547 C42.1393229,34.7373047 42.055013,34.9082031 41.9365234,35.03125 C41.8453776,35.1178385 41.7382812,35.1611328 41.6152344,35.1611328 C41.5332031,35.1611328 41.3964844,35.1110026 41.2050781,35.0107422 C40.5533854,34.6826172 39.8925781,34.5185547 39.2226562,34.5185547 C38.3613281,34.5185547 37.5672201,34.7316081 36.840332,35.1577148 C36.113444,35.5838216 35.5426432,36.1842448 35.1279297,36.9589844 C34.7132161,37.733724 34.5058594,38.5836589 34.5058594,39.5087891 C34.5058594,40.6572266 34.8203125,41.6552734 35.4492188,42.5029297 C36.2923177,43.6422526 37.4817708,44.2119141 39.0175781,44.2119141 Z"/>
	<line x1="69.5" x2="69.5" y1="30.5" y2="18.5"/>
	<line x1="69.5" x2="69.5" y1="60.5" y2="48.5"/>
	<path d="M69.0175781,44.2119141 C69.8697917,44.2119141 70.6057943,44.0205078 71.2255859,43.6376953 C71.8453776,43.2548828 72.3876953,42.6510417 72.8525391,41.8261719 L72.8525391,41.8261719 L72.640625,41.6894531 C72.0891927,42.4550781 71.5833333,42.9666341 71.1230469,43.2241211 C70.6627604,43.4816081 70.1318359,43.6103516 69.5302734,43.6103516 C68.8375651,43.6103516 68.2211914,43.4462891 67.6811523,43.1181641 C67.1411133,42.7900391 66.7366536,42.3183594 66.4677734,41.703125 C66.1988932,41.0878906 66.0644531,40.3610026 66.0644531,39.5224609 C66.0644531,38.5061849 66.2068685,37.65625 66.4916992,36.9726562 C66.7765299,36.2890625 67.1673177,35.7911784 67.6640625,35.4790039 C68.1608073,35.1668294 68.7167969,35.0107422 69.3320312,35.0107422 C70.0657552,35.0107422 70.6946615,35.218099 71.21875,35.6328125 C71.7428385,36.047526 72.1461589,36.7265625 72.4287109,37.6699219 L72.4287109,37.6699219 L72.640625,37.6699219 L72.4287109,34.5185547 L72.1894531,34.5185547 C72.1393229,34.7373047 72.055013,34.9082031 71.9365234,35.03125 C71.8453776,35.1178385 71.7382812,35.1611328 71.6152344,35.1611328 C71.5332031,35.1611328 71.3964844,35.1110026 71.2050781,35.0107422 C70.5533854,34.6826172 69.8925781,34.5185547 69.2226562,34.5185547 C68.3613281,34.5185547 67.5672201,34.7316081 66.840332,35.1577148 C66.113444,35.5838216 65.5426432,36.1842448 65.1279297,36.9589844 C64.7132161,37.733724 64.5058594,38.5836589 64.5058594,39.5087891 C64.5058594,40.6572266 64.8203125,41.6552734 65.4492188,42.5029297 C66.2923177,43.6422526 67.4817708,44.2119141 69.0175781,44.2119141 Z"/>
	<line x1="99.5" x2="99.5" y1="30.5" y2="18.5"/>
	<line x1="99.5" x2="99.5" y1="60.5" y2="48.5"/>
	<line x1="177.5" x2="177.5" y1="60.5" y2="48.5"/>
	<line x1="177.5" x2="177.5" y1="29.5" y2="17.5"/>
	<line x1="241.5" x2="241.5" y1="60.5" y2="48.5"/>
	<line x1="241.5" x2="241.5" y1="29.5" y2="17.5"/>
	<path d="M99.0175781,44.2119141 C99.8697917,44.2119141 100.605794,44.0205078 101.225586,43.6376953 C101.845378,43.2548828 102.387695,42.6510417 102.852539,41.8261719 L102.852539,41.8261719 L102.640625,41.6894531 C102.089193,42.4550781 101.583333,42.9666341 101.123047,43.2241211 C100.66276,43.4816081 100.131836,43.6103516 99.5302734,43.6103516 C98.8375651,43.6103516 98.2211914,43.4462891 97.6811523,43.1181641 C97.1411133,42.7900391 96.7366536,42.3183594 96.4677734,41.703125 C96.1988932,41.0878906 96.0644531,40.3610026 96.0644531,39.5224609 C96.0644531,38.5061849 96.2068685,37.65625 96.4916992,36.9726562 C96.7765299,36.2890625 97.1673177,35.7911784 97.6640625,35.4790039 C98.1608073,35.1668294 98.7167969,35.0107422 99.3320312,35.0107422 C100.065755,35.0107422 100.694661,35.218099 101.21875,35.6328125 C101.742839,36.047526 102.146159,36.7265625 102.428711,37.6699219 L102.428711,37.6699219 L102.640625,37.6699219 L102.428711,34.5185547 L102.189453,34.5185547 C102.139323,34.7373047 102.055013,34.9082031 101.936523,35.03125 C101.845378,35.1178385 101.738281,35.1611328 101.615234,35.1611328 C101.533203,35.1611328 101.396484,35.1110026 101.205078,35.0107422 C100.553385,34.6826172 99.8925781,34.5185547 99.2226562,34.5185547 C98.3613281,34.5185547 97.5672201,34.7316081 96.840332,35.1577148 C96.113444,35.5838216 95.5426432,36.1842448 95.1279297,36.9589844 C94.7132161,37.733724 94.5058594,38.5836589 94.5058594,39.5087891 C94.5058594,40.6572266 94.8203125,41.6552734 95.4492188,42.5029297 C96.2923177,43.6422526 97.4817708,44.2119141 99.0175781,44.2119141 Z"/>
	<path d="M171.216797,43.2119141 C171.248698,42.9977214 171.297689,42.8564453 171.36377,42.7880859 C171.42985,42.7197266 171.519857,42.6855469 171.633789,42.6855469 C171.752279,42.6855469 172.033691,42.7573242 172.478027,42.9008789 C172.922363,43.0444336 173.215169,43.1276042 173.356445,43.1503906 C173.593424,43.1914062 173.846354,43.2119141 174.115234,43.2119141 C174.972005,43.2119141 175.672689,42.9578451 176.217285,42.449707 C176.761882,41.941569 177.03418,41.3365885 177.03418,40.6347656 C177.03418,40.265625 176.94873,39.9124349 176.777832,39.5751953 C176.606934,39.2379557 176.363118,38.9451497 176.046387,38.6967773 C175.729655,38.4484049 175.138346,38.0917969 174.272461,37.6269531 C173.210612,37.0572917 172.538411,36.6015625 172.255859,36.2597656 C172.059896,36.0273438 171.961914,35.7698568 171.961914,35.4873047 C171.961914,35.1181641 172.116862,34.7888997 172.426758,34.4995117 C172.736654,34.2101237 173.128581,34.0654297 173.602539,34.0654297 C174.02181,34.0654297 174.427409,34.172526 174.819336,34.3867188 C175.211263,34.6009115 175.513184,34.8902995 175.725098,35.2548828 C175.937012,35.6194661 176.083984,36.109375 176.166016,36.7246094 L176.166016,36.7246094 L176.418945,36.7246094 L176.418945,33.5185547 L176.166016,33.5185547 C176.120443,33.7327474 176.060059,33.8751628 175.984863,33.9458008 C175.909668,34.0164388 175.812826,34.0517578 175.694336,34.0517578 C175.589518,34.0517578 175.409505,33.9947917 175.154297,33.8808594 C174.602865,33.6393229 174.081055,33.5185547 173.588867,33.5185547 C172.800456,33.5185547 172.151042,33.7589518 171.640625,34.2397461 C171.130208,34.7205404 170.875,35.2936198 170.875,35.9589844 C170.875,36.3417969 170.961589,36.6927083 171.134766,37.0117188 C171.307943,37.3307292 171.562012,37.6223958 171.896973,37.8867188 C172.231934,38.1510417 172.795898,38.5053711 173.588867,38.949707 C174.381836,39.394043 174.867188,39.6845703 175.044922,39.8212891 C175.309245,40.0218099 175.504069,40.2382812 175.629395,40.4707031 C175.75472,40.703125 175.817383,40.9332682 175.817383,41.1611328 C175.817383,41.5712891 175.652181,41.9267578 175.321777,42.2275391 C174.991374,42.5283203 174.541341,42.6787109 173.97168,42.6787109 C173.479492,42.6787109 173.027181,42.5693359 172.614746,42.3505859 C172.202311,42.1318359 171.895833,41.8572591 171.695312,41.5268555 C171.494792,41.1964518 171.335286,40.6985677 171.216797,40.0332031 L171.216797,40.0332031 L170.963867,40.0332031 L170.963867,43.2119141 L171.216797,43.2119141 Z M179.816406,34.6669922 C180.007812,34.6669922 180.170736,34.5986328 180.305176,34.4619141 C180.439616,34.3251953 180.506836,34.1611328 180.506836,33.9697266 C180.506836,33.7783203 180.439616,33.6153971 180.305176,33.480957 C180.170736,33.3465169 180.007812,33.2792969 179.816406,33.2792969 C179.620443,33.2792969 179.455241,33.3465169 179.320801,33.480957 C179.186361,33.6153971 179.119141,33.7783203 179.119141,33.9697266 C179.119141,34.1611328 179.1875,34.3251953 179.324219,34.4619141 C179.460938,34.5986328 179.625,34.6669922 179.816406,34.6669922 Z M181.333984,43 L181.333984,42.7539062 C181.03776,42.7539062 180.833822,42.7220052 180.722168,42.6582031 C180.610514,42.594401 180.526204,42.4975586 180.469238,42.3676758 C180.412272,42.237793 180.383789,41.976888 180.383789,41.5849609 L180.383789,41.5849609 L180.383789,36.5537109 L180.083008,36.5537109 L178.196289,37.3193359 L178.291992,37.5654297 C178.474284,37.4970703 178.629232,37.4628906 178.756836,37.4628906 C178.875326,37.4628906 178.96875,37.4913737 179.037109,37.5483398 C179.105469,37.605306 179.155599,37.7067057 179.1875,37.8525391 C179.228516,38.0530599 179.249023,38.4928385 179.249023,39.171875 L179.249023,39.171875 L179.249023,41.5849609 C179.249023,41.9723307 179.218262,42.234375 179.156738,42.3710938 C179.095215,42.5078125 179.012044,42.6057943 178.907227,42.6650391 C178.802409,42.7242839 178.597331,42.7539062 178.291992,42.7539062 L178.291992,42.7539062 L178.291992,43 L181.333984,43 Z"/>
	<path d="M235.216797,43.2119141 C235.248698,42.9977214 235.297689,42.8564453 235.36377,42.7880859 C235.42985,42.7197266 235.519857,42.6855469 235.633789,42.6855469 C235.752279,42.6855469 236.033691,42.7573242 236.478027,42.9008789 C236.922363,43.0444336 237.215169,43.1276042 237.356445,43.1503906 C237.593424,43.1914062 237.846354,43.2119141 238.115234,43.2119141 C238.972005,43.2119141 239.672689,42.9578451 240.217285,42.449707 C240.761882,41.941569 241.03418,41.3365885 241.03418,40.6347656 C241.03418,40.265625 240.94873,39.9124349 240.777832,39.5751953 C240.606934,39.2379557 240.363118,38.9451497 240.046387,38.6967773 C239.729655,38.4484049 239.138346,38.0917969 238.272461,37.6269531 C237.210612,37.0572917 236.538411,36.6015625 236.255859,36.2597656 C236.059896,36.0273438 235.961914,35.7698568 235.961914,35.4873047 C235.961914,35.1181641 236.116862,34.7888997 236.426758,34.4995117 C236.736654,34.2101237 237.128581,34.0654297 237.602539,34.0654297 C238.02181,34.0654297 238.427409,34.172526 238.819336,34.3867188 C239.211263,34.6009115 239.513184,34.8902995 239.725098,35.2548828 C239.937012,35.6194661 240.083984,36.109375 240.166016,36.7246094 L240.166016,36.7246094 L240.418945,36.7246094 L240.418945,33.5185547 L240.166016,33.5185547 C240.120443,33.7327474 240.060059,33.8751628 239.984863,33.9458008 C239.909668,34.0164388 239.812826,34.0517578 239.694336,34.0517578 C239.589518,34.0517578 239.409505,33.9947917 239.154297,33.8808594 C238.602865,33.6393229 238.081055,33.5185547 237.588867,33.5185547 C236.800456,33.5185547 236.151042,33.7589518 235.640625,34.2397461 C235.130208,34.7205404 234.875,35.2936198 234.875,35.9589844 C234.875,36.3417969 234.961589,36.6927083 235.134766,37.0117188 C235.307943,37.3307292 235.562012,37.6223958 235.896973,37.8867188 C236.231934,38.1510417 236.795898,38.5053711 237.588867,38.949707 C238.381836,39.394043 238.867188,39.6845703 239.044922,39.8212891 C239.309245,40.0218099 239.504069,40.2382812 239.629395,40.4707031 C239.75472,40.703125 239.817383,40.9332682 239.817383,41.1611328 C239.817383,41.5712891 239.652181,41.9267578 239.321777,42.2275391 C238.991374,42.5283203 238.541341,42.6787109 237.97168,42.6787109 C237.479492,42.6787109 237.027181,42.5693359 236.614746,42.3505859 C236.202311,42.1318359 235.895833,41.8572591 235.695312,41.5268555 C235.494792,41.1964518 235.335286,40.6985677 235.216797,40.0332031 L235.216797,40.0332031 L234.963867,40.0332031 L234.963867,43.2119141 L235.216797,43.2119141 Z M243.816406,34.6669922 C244.007812,34.6669922 244.170736,34.5986328 244.305176,34.4619141 C244.439616,34.3251953 244.506836,34.1611328 244.506836,33.9697266 C244.506836,33.7783203 244.439616,33.6153971 244.305176,33.480957 C244.170736,33.3465169 244.007812,33.2792969 243.816406,33.2792969 C243.620443,33.2792969 243.455241,33.3465169 243.320801,33.480957 C243.186361,33.6153971 243.119141,33.7783203 243.119141,33.9697266 C243.119141,34.1611328 243.1875,34.3251953 243.324219,34.4619141 C243.460938,34.5986328 243.625,34.6669922 243.816406,34.6669922 Z M245.333984,43 L245.333984,42.7539062 C245.03776,42.7539062 244.833822,42.7220052 244.722168,42.6582031 C244.610514,42.594401 244.526204,42.4975586 244.469238,42.3676758 C244.412272,42.237793 244.383789,41.976888 244.383789,41.5849609 L244.383789,41.5849609 L244.383789,36.5537109 L244.083008,36.5537109 L242.196289,37.3193359 L242.291992,37.5654297 C242.474284,37.4970703 242.629232,37.4628906 242.756836,37.4628906 C242.875326,37.4628906 242.96875,37.4913737 243.037109,37.5483398 C243.105469,37.605306 243.155599,37.7067057 243.1875,37.8525391 C243.228516,38.0530599 243.249023,38.4928385 243.249023,39.171875 L243.249023,39.171875 L243.249023,41.5849609 C243.249023,41.9723307 243.218262,42.234375 243.156738,42.3710938 C243.095215,42.5078125 243.012044,42.6057943 242.907227,42.6650391 C242.802409,42.7242839 242.597331,42.7539062 242.291992,42.7539062 L242.291992,42.7539062 L242.291992,43 L245.333984,43 Z"/>
	<path d="M128.331055,43.1025391 C128.640951,43.1025391 128.941732,42.9897461 129.233398,42.7641602 C129.525065,42.5385742 129.750651,42.202474 129.910156,41.7558594 L129.910156,41.7558594 L129.643555,41.7558594 C129.566081,41.938151 129.456706,42.0760091 129.31543,42.1694336 C129.174154,42.2628581 129.02832,42.3095703 128.87793,42.3095703 C128.695638,42.3095703 128.546387,42.2389323 128.430176,42.0976562 C128.313965,41.9563802 128.255859,41.6829427 128.255859,41.2773438 L128.255859,41.2773438 L128.255859,37.2167969 L129.71875,37.2167969 L129.71875,36.7382812 L128.255859,36.7382812 L128.255859,34.6806641 L128.043945,34.6806641 C127.857096,35.1409505 127.711263,35.4576823 127.606445,35.6308594 C127.401367,35.9589844 127.167806,36.2426758 126.905762,36.4819336 C126.643717,36.7211914 126.38737,36.8909505 126.136719,36.9912109 L126.136719,36.9912109 L126.136719,37.2167969 L127.12793,37.2167969 L127.12793,41.4277344 C127.12793,41.8789062 127.175781,42.2127279 127.271484,42.4291992 C127.367188,42.6456706 127.515299,42.8120117 127.71582,42.9282227 C127.916341,43.0444336 128.121419,43.1025391 128.331055,43.1025391 Z M133.314453,43.1914062 C133.893229,43.1914062 134.418457,43.0455729 134.890137,42.7539062 C135.361816,42.4622396 135.732096,42.0292969 136.000977,41.4550781 C136.269857,40.8808594 136.404297,40.3134766 136.404297,39.7529297 C136.404297,38.9554036 136.160482,38.2490234 135.672852,37.6337891 C135.098633,36.913737 134.337565,36.5537109 133.389648,36.5537109 C132.870117,36.5537109 132.37793,36.6892904 131.913086,36.9604492 C131.448242,37.2316081 131.073405,37.6508789 130.788574,38.2182617 C130.503743,38.7856445 130.361328,39.3564453 130.361328,39.9306641 C130.361328,40.7190755 130.596029,41.430013 131.06543,42.0634766 C131.621419,42.8154297 132.371094,43.1914062 133.314453,43.1914062 Z M133.608398,42.7060547 C133.015951,42.7060547 132.538574,42.375651 132.17627,41.7148438 C131.813965,41.0540365 131.632812,40.2679036 131.632812,39.3564453 C131.632812,38.7913411 131.708008,38.328776 131.858398,37.96875 C132.008789,37.608724 132.205892,37.3569336 132.449707,37.2133789 C132.693522,37.0698242 132.936198,36.9980469 133.177734,36.9980469 C133.679036,36.9980469 134.091471,37.2167969 134.415039,37.6542969 C134.893555,38.2923177 135.132812,39.1673177 135.132812,40.2792969 C135.132812,41.1679688 134.989258,41.7945964 134.702148,42.1591797 C134.415039,42.523763 134.050456,42.7060547 133.608398,42.7060547 Z M145.400391,43.2119141 C146.66276,43.2119141 147.738281,42.7470703 148.626953,41.8173828 C149.515625,40.8876953 149.959961,39.71875 149.959961,38.3105469 C149.959961,36.9433594 149.519043,35.8028971 148.637207,34.8891602 C147.755371,33.9754232 146.712891,33.5185547 145.509766,33.5185547 C144.297526,33.5185547 143.256185,33.921875 142.385742,34.7285156 C141.383138,35.6582031 140.881836,36.8590495 140.881836,38.3310547 C140.881836,39.7711589 141.315918,40.9446615 142.184082,41.8515625 C143.052246,42.7584635 144.124349,43.2119141 145.400391,43.2119141 Z M145.386719,42.7265625 C144.570964,42.7265625 143.914714,42.4166667 143.417969,41.796875 C142.770833,40.9811198 142.447266,39.8167318 142.447266,38.3037109 C142.447266,36.8271484 142.75944,35.7060547 143.383789,34.9404297 C143.885091,34.3251953 144.550456,34.0175781 145.379883,34.0175781 C146.263997,34.0175781 146.956706,34.327474 147.458008,34.9472656 C148.082357,35.7265625 148.394531,36.9091797 148.394531,38.4951172 C148.394531,39.9580078 148.11084,41.0289714 147.543457,41.7080078 C146.976074,42.3870443 146.257161,42.7265625 145.386719,42.7265625 Z"/>
	<path d="M209.010742,43.2119141 C210.273112,43.2119141 211.348633,42.7470703 212.237305,41.8173828 C213.125977,40.8876953 213.570312,39.71875 213.570312,38.3105469 C213.570312,36.9433594 213.129395,35.8028971 212.247559,34.8891602 C211.365723,33.9754232 210.323242,33.5185547 209.120117,33.5185547 C207.907878,33.5185547 206.866536,33.921875 205.996094,34.7285156 C204.99349,35.6582031 204.492188,36.8590495 204.492188,38.3310547 C204.492188,39.7711589 204.92627,40.9446615 205.794434,41.8515625 C206.662598,42.7584635 207.734701,43.2119141 209.010742,43.2119141 Z M208.99707,42.7265625 C208.181315,42.7265625 207.525065,42.4166667 207.02832,41.796875 C206.381185,40.9811198 206.057617,39.8167318 206.057617,38.3037109 C206.057617,36.8271484 206.369792,35.7060547 206.994141,34.9404297 C207.495443,34.3251953 208.160807,34.0175781 208.990234,34.0175781 C209.874349,34.0175781 210.567057,34.327474 211.068359,34.9472656 C211.692708,35.7265625 212.004883,36.9091797 212.004883,38.4951172 C212.004883,39.9580078 211.721191,41.0289714 211.153809,41.7080078 C210.586426,42.3870443 209.867513,42.7265625 208.99707,42.7265625 Z"/>
	<line x1="250.5" x2="262.5" y1="39.5" y2="39.5"/>
	<line x1="280.5" x2="292.5" y1="39.5" y2="39.5"/>
	<line x1="304.5" x2="304.5" y1="60.5" y2="48.5"/>
	<line x1="304.5" x2="304.5" y1="29.5" y2="17.5"/>
	<path d="M298.216797,43.2119141 C298.248698,42.9977214 298.297689,42.8564453 298.36377,42.7880859 C298.42985,42.7197266 298.519857,42.6855469 298.633789,42.6855469 C298.752279,42.6855469 299.033691,42.7573242 299.478027,42.9008789 C299.922363,43.0444336 300.215169,43.1276042 300.356445,43.1503906 C300.593424,43.1914062 300.846354,43.2119141 301.115234,43.2119141 C301.972005,43.2119141 302.672689,42.9578451 303.217285,42.449707 C303.761882,41.941569 304.03418,41.3365885 304.03418,40.6347656 C304.03418,40.265625 303.94873,39.9124349 303.777832,39.5751953 C303.606934,39.2379557 303.363118,38.9451497 303.046387,38.6967773 C302.729655,38.4484049 302.138346,38.0917969 301.272461,37.6269531 C300.210612,37.0572917 299.538411,36.6015625 299.255859,36.2597656 C299.059896,36.0273438 298.961914,35.7698568 298.961914,35.4873047 C298.961914,35.1181641 299.116862,34.7888997 299.426758,34.4995117 C299.736654,34.2101237 300.128581,34.0654297 300.602539,34.0654297 C301.02181,34.0654297 301.427409,34.172526 301.819336,34.3867188 C302.211263,34.6009115 302.513184,34.8902995 302.725098,35.2548828 C302.937012,35.6194661 303.083984,36.109375 303.166016,36.7246094 L303.166016,36.7246094 L303.418945,36.7246094 L303.418945,33.5185547 L303.166016,33.5185547 C303.120443,33.7327474 303.060059,33.8751628 302.984863,33.9458008 C302.909668,34.0164388 302.812826,34.0517578 302.694336,34.0517578 C302.589518,34.0517578 302.409505,33.9947917 302.154297,33.8808594 C301.602865,33.6393229 301.081055,33.5185547 300.588867,33.5185547 C299.800456,33.5185547 299.151042,33.7589518 298.640625,34.2397461 C298.130208,34.7205404 297.875,35.2936198 297.875,35.9589844 C297.875,36.3417969 297.961589,36.6927083 298.134766,37.0117188 C298.307943,37.3307292 298.562012,37.6223958 298.896973,37.8867188 C299.231934,38.1510417 299.795898,38.5053711 300.588867,38.949707 C301.381836,39.394043 301.867188,39.6845703 302.044922,39.8212891 C302.309245,40.0218099 302.504069,40.2382812 302.629395,40.4707031 C302.75472,40.703125 302.817383,40.9332682 302.817383,41.1611328 C302.817383,41.5712891 302.652181,41.9267578 302.321777,42.2275391 C301.991374,42.5283203 301.541341,42.6787109 300.97168,42.6787109 C300.479492,42.6787109 300.027181,42.5693359 299.614746,42.3505859 C299.202311,42.1318359 298.895833,41.8572591 298.695312,41.5268555 C298.494792,41.1964518 298.335286,40.6985677 298.216797,40.0332031 L298.216797,40.0332031 L297.963867,40.0332031 L297.963867,43.2119141 L298.216797,43.2119141 Z M306.816406,34.6669922 C307.007812,34.6669922 307.170736,34.5986328 307.305176,34.4619141 C307.439616,34.3251953 307.506836,34.1611328 307.506836,33.9697266 C307.506836,33.7783203 307.439616,33.6153971 307.305176,33.480957 C307.170736,33.3465169 307.007812,33.2792969 306.816406,33.2792969 C306.620443,33.2792969 306.455241,33.3465169 306.320801,33.480957 C306.186361,33.6153971 306.119141,33.7783203 306.119141,33.9697266 C306.119141,34.1611328 306.1875,34.3251953 306.324219,34.4619141 C306.460938,34.5986328 306.625,34.6669922 306.816406,34.6669922 Z M308.333984,43 L308.333984,42.7539062 C308.03776,42.7539062 307.833822,42.7220052 307.722168,42.6582031 C307.610514,42.594401 307.526204,42.4975586 307.469238,42.3676758 C307.412272,42.237793 307.383789,41.976888 307.383789,41.5849609 L307.383789,41.5849609 L307.383789,36.5537109 L307.083008,36.5537109 L305.196289,37.3193359 L305.291992,37.5654297 C305.474284,37.4970703 305.629232,37.4628906 305.756836,37.4628906 C305.875326,37.4628906 305.96875,37.4913737 306.037109,37.5483398 C306.105469,37.605306 306.155599,37.7067057 306.1875,37.8525391 C306.228516,38.0530599 306.249023,38.4928385 306.249023,39.171875 L306.249023,39.171875 L306.249023,41.5849609 C306.249023,41.9723307 306.218262,42.234375 306.156738,42.3710938 C306.095215,42.5078125 306.012044,42.6057943 305.907227,42.6650391 C305.802409,42.7242839 305.597331,42.7539062 305.291992,42.7539062 L305.291992,42.7539062 L305.291992,43 L308.333984,43 Z M309.427734,45.3310547 C310.134115,45.0986328 310.650228,44.7807617 310.976074,44.3774414 C311.301921,43.9741211 311.464844,43.5377604 311.464844,43.0683594 C311.464844,42.6354167 311.347493,42.2879232 311.112793,42.0258789 C310.878092,41.7638346 310.610352,41.6328125 310.30957,41.6328125 C310.063477,41.6328125 309.85498,41.7125651 309.684082,41.8720703 C309.513184,42.0315755 309.427734,42.2229818 309.427734,42.4462891 C309.427734,42.6787109 309.493815,42.8610026 309.625977,42.9931641 C309.758138,43.1253255 309.935872,43.1914062 310.15918,43.1914062 C310.250326,43.1914062 310.336914,43.1708984 310.418945,43.1298828 C310.587565,43.038737 310.69694,42.9931641 310.74707,42.9931641 C310.778971,42.9931641 310.810872,43.0136719 310.842773,43.0546875 C310.883789,43.1139323 310.904297,43.186849 310.904297,43.2734375 C310.904297,43.6380208 310.775553,43.9832357 310.518066,44.309082 C310.260579,44.6349284 309.897135,44.8753255 309.427734,45.0302734 L309.427734,45.0302734 L309.427734,45.3310547 Z"/>
	<path d="M272.010742,43.2119141 C273.273112,43.2119141 274.348633,42.7470703 275.237305,41.8173828 C276.125977,40.8876953 276.570312,39.71875 276.570312,38.3105469 C276.570312,36.9433594 276.129395,35.8028971 275.247559,34.8891602 C274.365723,33.9754232 273.323242,33.5185547 272.120117,33.5185547 C270.907878,33.5185547 269.866536,33.921875 268.996094,34.7285156 C267.99349,35.6582031 267.492188,36.8590495 267.492188,38.3310547 C267.492188,39.7711589 267.92627,40.9446615 268.794434,41.8515625 C269.662598,42.7584635 270.734701,43.2119141 272.010742,43.2119141 Z M271.99707,42.7265625 C271.181315,42.7265625 270.525065,42.4166667 270.02832,41.796875 C269.381185,40.9811198 269.057617,39.8167318 269.057617,38.3037109 C269.057617,36.8271484 269.369792,35.7060547 269.994141,34.9404297 C270.495443,34.3251953 271.160807,34.0175781 271.990234,34.0175781 C272.874349,34.0175781 273.567057,34.327474 274.068359,34.9472656 C274.692708,35.7265625 275.004883,36.9091797 275.004883,38.4951172 C275.004883,39.9580078 274.721191,41.0289714 274.153809,41.7080078 C273.586426,42.3870443 272.867513,42.7265625 271.99707,42.7265625 Z"/>
</svg>
