<?xml version="1.0" encoding="utf-8"?>
<svg xmlns="http://www.w3.org/2000/svg" xmlns:xlink="http://www.w3.org/1999/xlink" version="1.1" viewBox="0 0 339 115">
	<title>Chemical diagram of a carbon-hydrogen-fluorine chain + flourine producing carbon-flourine chain + hydroflouric acid.</title>
	<style type="text/css">
		line{
			stroke: #000;
			stroke-width: 1.5;
		}

		path,
    polygon{
      fill: #000;
			fill-rule: nonzero;
		}
	</style>
	<line x1="41.5" x2="41.5" y1="46.5" y2="34.5"/>
	<line x1="19.5" x2="31.5" y1="56.5" y2="56.5"/>
	<line x1="50.5" x2="62.5" y1="56.5" y2="56.5"/>
	<line x1="80.5" x2="92.5" y1="56.5" y2="56.5"/>
	<line x1="111.5" x2="123.5" y1="56.5" y2="56.5"/>
	<line x1="41.5" x2="41.5" y1="76.5" y2="64.5"/>
	<path d="M41.0175781,60.2119141 C41.8697917,60.2119141 42.6057943,60.0205078 43.2255859,59.6376953 C43.8453776,59.2548828 44.3876953,58.6510417 44.8525391,57.8261719 L44.8525391,57.8261719 L44.640625,57.6894531 C44.0891927,58.4550781 43.5833333,58.9666341 43.1230469,59.2241211 C42.6627604,59.4816081 42.1318359,59.6103516 41.5302734,59.6103516 C40.8375651,59.6103516 40.2211914,59.4462891 39.6811523,59.1181641 C39.1411133,58.7900391 38.7366536,58.3183594 38.4677734,57.703125 C38.1988932,57.0878906 38.0644531,56.3610026 38.0644531,55.5224609 C38.0644531,54.5061849 38.2068685,53.65625 38.4916992,52.9726562 C38.7765299,52.2890625 39.1673177,51.7911784 39.6640625,51.4790039 C40.1608073,51.1668294 40.7167969,51.0107422 41.3320312,51.0107422 C42.0657552,51.0107422 42.6946615,51.218099 43.21875,51.6328125 C43.7428385,52.047526 44.1461589,52.7265625 44.4287109,53.6699219 L44.4287109,53.6699219 L44.640625,53.6699219 L44.4287109,50.5185547 L44.1894531,50.5185547 C44.1393229,50.7373047 44.055013,50.9082031 43.9365234,51.03125 C43.8453776,51.1178385 43.7382812,51.1611328 43.6152344,51.1611328 C43.5332031,51.1611328 43.3964844,51.1110026 43.2050781,51.0107422 C42.5533854,50.6826172 41.8925781,50.5185547 41.2226562,50.5185547 C40.3613281,50.5185547 39.5672201,50.7316081 38.840332,51.1577148 C38.113444,51.5838216 37.5426432,52.1842448 37.1279297,52.9589844 C36.7132161,53.733724 36.5058594,54.5836589 36.5058594,55.5087891 C36.5058594,56.6572266 36.8203125,57.6552734 37.4492188,58.5029297 C38.2923177,59.6422526 39.4817708,60.2119141 41.0175781,60.2119141 Z"/>
	<path d="M40.2041016,92 L40.2041016,91.7470703 L39.8691406,91.7470703 C39.6503906,91.7470703 39.4407552,91.6923828 39.2402344,91.5830078 C39.094401,91.5009766 38.9986979,91.4029948 38.953125,91.2890625 C38.8938802,91.1386719 38.8642578,90.828776 38.8642578,90.359375 L38.8642578,90.359375 L38.8642578,87.4472656 L40.5527344,87.4472656 C40.8626302,87.4472656 41.0961914,87.4894206 41.253418,87.5737305 C41.4106445,87.6580404 41.5336914,87.7845052 41.6225586,87.953125 C41.7114258,88.1217448 41.758138,88.3860677 41.7626953,88.7460938 L41.7626953,88.7460938 L42.015625,88.7460938 L42.015625,85.6083984 L41.7626953,85.6083984 C41.7034505,86.1142578 41.5838216,86.4526367 41.4038086,86.6235352 C41.2237956,86.7944336 40.9401042,86.8798828 40.5527344,86.8798828 L40.5527344,86.8798828 L38.8642578,86.8798828 L38.8642578,83.2363281 L40.9082031,83.2363281 C41.391276,83.2363281 41.7478841,83.281901 41.9780273,83.3730469 C42.2081706,83.4641927 42.4018555,83.6111654 42.559082,83.8139648 C42.7163086,84.0167643 42.8541667,84.3346354 42.9726562,84.7675781 L42.9726562,84.7675781 L43.2119141,84.7675781 L43.1230469,82.7304688 L36.2255859,82.7304688 L36.2255859,82.9833984 L36.5537109,82.9833984 C36.7770182,82.9833984 36.9866536,83.0380859 37.1826172,83.1474609 C37.3238932,83.2294922 37.4173177,83.327474 37.4628906,83.4414062 C37.5221354,83.5917969 37.5517578,83.9016927 37.5517578,84.3710938 L37.5517578,84.3710938 L37.5517578,90.359375 C37.5517578,90.9153646 37.4970703,91.266276 37.3876953,91.4121094 C37.2145182,91.6354167 36.9365234,91.7470703 36.5537109,91.7470703 L36.5537109,91.7470703 L36.2255859,91.7470703 L36.2255859,92 L40.2041016,92 Z"/>
	<path d="M70.2041016,92 L70.2041016,91.7470703 L69.8691406,91.7470703 C69.6503906,91.7470703 69.4407552,91.6923828 69.2402344,91.5830078 C69.094401,91.5009766 68.9986979,91.4029948 68.953125,91.2890625 C68.8938802,91.1386719 68.8642578,90.828776 68.8642578,90.359375 L68.8642578,90.359375 L68.8642578,87.4472656 L70.5527344,87.4472656 C70.8626302,87.4472656 71.0961914,87.4894206 71.253418,87.5737305 C71.4106445,87.6580404 71.5336914,87.7845052 71.6225586,87.953125 C71.7114258,88.1217448 71.758138,88.3860677 71.7626953,88.7460938 L71.7626953,88.7460938 L72.015625,88.7460938 L72.015625,85.6083984 L71.7626953,85.6083984 C71.7034505,86.1142578 71.5838216,86.4526367 71.4038086,86.6235352 C71.2237956,86.7944336 70.9401042,86.8798828 70.5527344,86.8798828 L70.5527344,86.8798828 L68.8642578,86.8798828 L68.8642578,83.2363281 L70.9082031,83.2363281 C71.391276,83.2363281 71.7478841,83.281901 71.9780273,83.3730469 C72.2081706,83.4641927 72.4018555,83.6111654 72.559082,83.8139648 C72.7163086,84.0167643 72.8541667,84.3346354 72.9726562,84.7675781 L72.9726562,84.7675781 L73.2119141,84.7675781 L73.1230469,82.7304688 L66.2255859,82.7304688 L66.2255859,82.9833984 L66.5537109,82.9833984 C66.7770182,82.9833984 66.9866536,83.0380859 67.1826172,83.1474609 C67.3238932,83.2294922 67.4173177,83.327474 67.4628906,83.4414062 C67.5221354,83.5917969 67.5517578,83.9016927 67.5517578,84.3710938 L67.5517578,84.3710938 L67.5517578,90.359375 C67.5517578,90.9153646 67.4970703,91.266276 67.3876953,91.4121094 C67.2145182,91.6354167 66.9365234,91.7470703 66.5537109,91.7470703 L66.5537109,91.7470703 L66.2255859,91.7470703 L66.2255859,92 L70.2041016,92 Z"/>
	<path d="M101.204102,92 L101.204102,91.7470703 L100.869141,91.7470703 C100.650391,91.7470703 100.440755,91.6923828 100.240234,91.5830078 C100.094401,91.5009766 99.9986979,91.4029948 99.953125,91.2890625 C99.8938802,91.1386719 99.8642578,90.828776 99.8642578,90.359375 L99.8642578,90.359375 L99.8642578,87.4472656 L101.552734,87.4472656 C101.86263,87.4472656 102.096191,87.4894206 102.253418,87.5737305 C102.410645,87.6580404 102.533691,87.7845052 102.622559,87.953125 C102.711426,88.1217448 102.758138,88.3860677 102.762695,88.7460938 L102.762695,88.7460938 L103.015625,88.7460938 L103.015625,85.6083984 L102.762695,85.6083984 C102.703451,86.1142578 102.583822,86.4526367 102.403809,86.6235352 C102.223796,86.7944336 101.940104,86.8798828 101.552734,86.8798828 L101.552734,86.8798828 L99.8642578,86.8798828 L99.8642578,83.2363281 L101.908203,83.2363281 C102.391276,83.2363281 102.747884,83.281901 102.978027,83.3730469 C103.208171,83.4641927 103.401855,83.6111654 103.559082,83.8139648 C103.716309,84.0167643 103.854167,84.3346354 103.972656,84.7675781 L103.972656,84.7675781 L104.211914,84.7675781 L104.123047,82.7304688 L97.2255859,82.7304688 L97.2255859,82.9833984 L97.5537109,82.9833984 C97.7770182,82.9833984 97.9866536,83.0380859 98.1826172,83.1474609 C98.3238932,83.2294922 98.4173177,83.327474 98.4628906,83.4414062 C98.5221354,83.5917969 98.5517578,83.9016927 98.5517578,84.3710938 L98.5517578,84.3710938 L98.5517578,90.359375 C98.5517578,90.9153646 98.4970703,91.266276 98.3876953,91.4121094 C98.2145182,91.6354167 97.9365234,91.7470703 97.5537109,91.7470703 L97.5537109,91.7470703 L97.2255859,91.7470703 L97.2255859,92 L101.204102,92 Z"/>
	<path d="M40.2109375,30 L40.2109375,29.7470703 L39.8759766,29.7470703 C39.6572266,29.7470703 39.4498698,29.6923828 39.2539062,29.5830078 C39.1080729,29.5009766 39.0123698,29.4029948 38.9667969,29.2890625 C38.9075521,29.1386719 38.8779297,28.828776 38.8779297,28.359375 L38.8779297,28.359375 L38.8779297,25.5361328 L43.1845703,25.5361328 L43.1845703,28.359375 C43.1845703,28.9153646 43.1276042,29.266276 43.0136719,29.4121094 C42.8404948,29.6354167 42.5647786,29.7470703 42.1865234,29.7470703 L42.1865234,29.7470703 L41.8583984,29.7470703 L41.8583984,30 L45.8232422,30 L45.8232422,29.7470703 L45.4951172,29.7470703 C45.2763672,29.7470703 45.0667318,29.6923828 44.8662109,29.5830078 C44.7249349,29.5009766 44.6315104,29.4029948 44.5859375,29.2890625 C44.5266927,29.1386719 44.4970703,28.828776 44.4970703,28.359375 L44.4970703,28.359375 L44.4970703,22.3779297 C44.4970703,21.9222005 44.5232747,21.6202799 44.5756836,21.472168 C44.6280924,21.324056 44.7272135,21.2135417 44.8730469,21.140625 C45.0690104,21.0358073 45.2763672,20.9833984 45.4951172,20.9833984 L45.4951172,20.9833984 L45.8232422,20.9833984 L45.8232422,20.7304688 L41.8583984,20.7304688 L41.8583984,20.9833984 L42.1865234,20.9833984 C42.4052734,20.9833984 42.6126302,21.0380859 42.8085938,21.1474609 C42.9544271,21.2294922 43.0501302,21.327474 43.0957031,21.4414062 C43.1549479,21.5917969 43.1845703,21.9039714 43.1845703,22.3779297 L43.1845703,22.3779297 L43.1845703,25.0302734 L38.8779297,25.0302734 L38.8779297,22.3779297 C38.8779297,21.9222005 38.9052734,21.6202799 38.9599609,21.472168 C39.0146484,21.324056 39.1126302,21.2135417 39.2539062,21.140625 C39.4498698,21.0358073 39.6572266,20.9833984 39.8759766,20.9833984 L39.8759766,20.9833984 L40.2109375,20.9833984 L40.2109375,20.7304688 L36.2392578,20.7304688 L36.2392578,20.9833984 L36.5673828,20.9833984 C36.7861328,20.9833984 36.9957682,21.0380859 37.1962891,21.1474609 C37.3375651,21.2294922 37.4309896,21.327474 37.4765625,21.4414062 C37.5358073,21.5917969 37.5654297,21.9039714 37.5654297,22.3779297 L37.5654297,22.3779297 L37.5654297,28.359375 C37.5654297,28.9153646 37.5107422,29.266276 37.4013672,29.4121094 C37.2281901,29.6354167 36.9501953,29.7470703 36.5673828,29.7470703 L36.5673828,29.7470703 L36.2392578,29.7470703 L36.2392578,30 L40.2109375,30 Z"/>
	<path d="M70.2109375,30 L70.2109375,29.7470703 L69.8759766,29.7470703 C69.6572266,29.7470703 69.4498698,29.6923828 69.2539062,29.5830078 C69.1080729,29.5009766 69.0123698,29.4029948 68.9667969,29.2890625 C68.9075521,29.1386719 68.8779297,28.828776 68.8779297,28.359375 L68.8779297,28.359375 L68.8779297,25.5361328 L73.1845703,25.5361328 L73.1845703,28.359375 C73.1845703,28.9153646 73.1276042,29.266276 73.0136719,29.4121094 C72.8404948,29.6354167 72.5647786,29.7470703 72.1865234,29.7470703 L72.1865234,29.7470703 L71.8583984,29.7470703 L71.8583984,30 L75.8232422,30 L75.8232422,29.7470703 L75.4951172,29.7470703 C75.2763672,29.7470703 75.0667318,29.6923828 74.8662109,29.5830078 C74.7249349,29.5009766 74.6315104,29.4029948 74.5859375,29.2890625 C74.5266927,29.1386719 74.4970703,28.828776 74.4970703,28.359375 L74.4970703,28.359375 L74.4970703,22.3779297 C74.4970703,21.9222005 74.5232747,21.6202799 74.5756836,21.472168 C74.6280924,21.324056 74.7272135,21.2135417 74.8730469,21.140625 C75.0690104,21.0358073 75.2763672,20.9833984 75.4951172,20.9833984 L75.4951172,20.9833984 L75.8232422,20.9833984 L75.8232422,20.7304688 L71.8583984,20.7304688 L71.8583984,20.9833984 L72.1865234,20.9833984 C72.4052734,20.9833984 72.6126302,21.0380859 72.8085938,21.1474609 C72.9544271,21.2294922 73.0501302,21.327474 73.0957031,21.4414062 C73.1549479,21.5917969 73.1845703,21.9039714 73.1845703,22.3779297 L73.1845703,22.3779297 L73.1845703,25.0302734 L68.8779297,25.0302734 L68.8779297,22.3779297 C68.8779297,21.9222005 68.9052734,21.6202799 68.9599609,21.472168 C69.0146484,21.324056 69.1126302,21.2135417 69.2539062,21.140625 C69.4498698,21.0358073 69.6572266,20.9833984 69.8759766,20.9833984 L69.8759766,20.9833984 L70.2109375,20.9833984 L70.2109375,20.7304688 L66.2392578,20.7304688 L66.2392578,20.9833984 L66.5673828,20.9833984 C66.7861328,20.9833984 66.9957682,21.0380859 67.1962891,21.1474609 C67.3375651,21.2294922 67.4309896,21.327474 67.4765625,21.4414062 C67.5358073,21.5917969 67.5654297,21.9039714 67.5654297,22.3779297 L67.5654297,22.3779297 L67.5654297,28.359375 C67.5654297,28.9153646 67.5107422,29.266276 67.4013672,29.4121094 C67.2281901,29.6354167 66.9501953,29.7470703 66.5673828,29.7470703 L66.5673828,29.7470703 L66.2392578,29.7470703 L66.2392578,30 L70.2109375,30 Z"/>
	<path d="M101.210938,30 L101.210938,29.7470703 L100.875977,29.7470703 C100.657227,29.7470703 100.44987,29.6923828 100.253906,29.5830078 C100.108073,29.5009766 100.01237,29.4029948 99.9667969,29.2890625 C99.9075521,29.1386719 99.8779297,28.828776 99.8779297,28.359375 L99.8779297,28.359375 L99.8779297,25.5361328 L104.18457,25.5361328 L104.18457,28.359375 C104.18457,28.9153646 104.127604,29.266276 104.013672,29.4121094 C103.840495,29.6354167 103.564779,29.7470703 103.186523,29.7470703 L103.186523,29.7470703 L102.858398,29.7470703 L102.858398,30 L106.823242,30 L106.823242,29.7470703 L106.495117,29.7470703 C106.276367,29.7470703 106.066732,29.6923828 105.866211,29.5830078 C105.724935,29.5009766 105.63151,29.4029948 105.585938,29.2890625 C105.526693,29.1386719 105.49707,28.828776 105.49707,28.359375 L105.49707,28.359375 L105.49707,22.3779297 C105.49707,21.9222005 105.523275,21.6202799 105.575684,21.472168 C105.628092,21.324056 105.727214,21.2135417 105.873047,21.140625 C106.06901,21.0358073 106.276367,20.9833984 106.495117,20.9833984 L106.495117,20.9833984 L106.823242,20.9833984 L106.823242,20.7304688 L102.858398,20.7304688 L102.858398,20.9833984 L103.186523,20.9833984 C103.405273,20.9833984 103.61263,21.0380859 103.808594,21.1474609 C103.954427,21.2294922 104.05013,21.327474 104.095703,21.4414062 C104.154948,21.5917969 104.18457,21.9039714 104.18457,22.3779297 L104.18457,22.3779297 L104.18457,25.0302734 L99.8779297,25.0302734 L99.8779297,22.3779297 C99.8779297,21.9222005 99.9052734,21.6202799 99.9599609,21.472168 C100.014648,21.324056 100.11263,21.2135417 100.253906,21.140625 C100.44987,21.0358073 100.657227,20.9833984 100.875977,20.9833984 L100.875977,20.9833984 L101.210938,20.9833984 L101.210938,20.7304688 L97.2392578,20.7304688 L97.2392578,20.9833984 L97.5673828,20.9833984 C97.7861328,20.9833984 97.9957682,21.0380859 98.1962891,21.1474609 C98.3375651,21.2294922 98.4309896,21.327474 98.4765625,21.4414062 C98.5358073,21.5917969 98.5654297,21.9039714 98.5654297,22.3779297 L98.5654297,22.3779297 L98.5654297,28.359375 C98.5654297,28.9153646 98.5107422,29.266276 98.4013672,29.4121094 C98.2281901,29.6354167 97.9501953,29.7470703 97.5673828,29.7470703 L97.5673828,29.7470703 L97.2392578,29.7470703 L97.2392578,30 L101.210938,30 Z"/>
	<line x1="71.5" x2="71.5" y1="46.5" y2="34.5"/>
	<line x1="71.5" x2="71.5" y1="76.5" y2="64.5"/>
	<path d="M71.0175781,60.2119141 C71.8697917,60.2119141 72.6057943,60.0205078 73.2255859,59.6376953 C73.8453776,59.2548828 74.3876953,58.6510417 74.8525391,57.8261719 L74.8525391,57.8261719 L74.640625,57.6894531 C74.0891927,58.4550781 73.5833333,58.9666341 73.1230469,59.2241211 C72.6627604,59.4816081 72.1318359,59.6103516 71.5302734,59.6103516 C70.8375651,59.6103516 70.2211914,59.4462891 69.6811523,59.1181641 C69.1411133,58.7900391 68.7366536,58.3183594 68.4677734,57.703125 C68.1988932,57.0878906 68.0644531,56.3610026 68.0644531,55.5224609 C68.0644531,54.5061849 68.2068685,53.65625 68.4916992,52.9726562 C68.7765299,52.2890625 69.1673177,51.7911784 69.6640625,51.4790039 C70.1608073,51.1668294 70.7167969,51.0107422 71.3320312,51.0107422 C72.0657552,51.0107422 72.6946615,51.218099 73.21875,51.6328125 C73.7428385,52.047526 74.1461589,52.7265625 74.4287109,53.6699219 L74.4287109,53.6699219 L74.640625,53.6699219 L74.4287109,50.5185547 L74.1894531,50.5185547 C74.1393229,50.7373047 74.055013,50.9082031 73.9365234,51.03125 C73.8453776,51.1178385 73.7382812,51.1611328 73.6152344,51.1611328 C73.5332031,51.1611328 73.3964844,51.1110026 73.2050781,51.0107422 C72.5533854,50.6826172 71.8925781,50.5185547 71.2226562,50.5185547 C70.3613281,50.5185547 69.5672201,50.7316081 68.840332,51.1577148 C68.113444,51.5838216 67.5426432,52.1842448 67.1279297,52.9589844 C66.7132161,53.733724 66.5058594,54.5836589 66.5058594,55.5087891 C66.5058594,56.6572266 66.8203125,57.6552734 67.4492188,58.5029297 C68.2923177,59.6422526 69.4817708,60.2119141 71.0175781,60.2119141 Z"/>
	<line x1="101.5" x2="101.5" y1="46.5" y2="34.5"/>
	<line x1="101.5" x2="101.5" y1="76.5" y2="64.5"/>
	<path d="M101.017578,60.2119141 C101.869792,60.2119141 102.605794,60.0205078 103.225586,59.6376953 C103.845378,59.2548828 104.387695,58.6510417 104.852539,57.8261719 L104.852539,57.8261719 L104.640625,57.6894531 C104.089193,58.4550781 103.583333,58.9666341 103.123047,59.2241211 C102.66276,59.4816081 102.131836,59.6103516 101.530273,59.6103516 C100.837565,59.6103516 100.221191,59.4462891 99.6811523,59.1181641 C99.1411133,58.7900391 98.7366536,58.3183594 98.4677734,57.703125 C98.1988932,57.0878906 98.0644531,56.3610026 98.0644531,55.5224609 C98.0644531,54.5061849 98.2068685,53.65625 98.4916992,52.9726562 C98.7765299,52.2890625 99.1673177,51.7911784 99.6640625,51.4790039 C100.160807,51.1668294 100.716797,51.0107422 101.332031,51.0107422 C102.065755,51.0107422 102.694661,51.218099 103.21875,51.6328125 C103.742839,52.047526 104.146159,52.7265625 104.428711,53.6699219 L104.428711,53.6699219 L104.640625,53.6699219 L104.428711,50.5185547 L104.189453,50.5185547 C104.139323,50.7373047 104.055013,50.9082031 103.936523,51.03125 C103.845378,51.1178385 103.738281,51.1611328 103.615234,51.1611328 C103.533203,51.1611328 103.396484,51.1110026 103.205078,51.0107422 C102.553385,50.6826172 101.892578,50.5185547 101.222656,50.5185547 C100.361328,50.5185547 99.5672201,50.7316081 98.840332,51.1577148 C98.113444,51.5838216 97.5426432,52.1842448 97.1279297,52.9589844 C96.7132161,53.733724 96.5058594,54.5836589 96.5058594,55.5087891 C96.5058594,56.6572266 96.8203125,57.6552734 97.4492188,58.5029297 C98.2923177,59.6422526 99.4817708,60.2119141 101.017578,60.2119141 Z"/>
	<line x1="202.5" x2="202.5" y1="46.5" y2="34.5"/>
	<line x1="181.5" x2="193.5" y1="56.5" y2="56.5"/>
	<line x1="212.5" x2="224.5" y1="56.5" y2="56.5"/>
	<line x1="242.5" x2="254.5" y1="56.5" y2="56.5"/>
	<line x1="273.5" x2="285.5" y1="56.5" y2="56.5"/>
	<line x1="203.5" x2="203.5" y1="76.5" y2="64.5"/>
	<path d="M203.017578,60.2119141 C203.869792,60.2119141 204.605794,60.0205078 205.225586,59.6376953 C205.845378,59.2548828 206.387695,58.6510417 206.852539,57.8261719 L206.852539,57.8261719 L206.640625,57.6894531 C206.089193,58.4550781 205.583333,58.9666341 205.123047,59.2241211 C204.66276,59.4816081 204.131836,59.6103516 203.530273,59.6103516 C202.837565,59.6103516 202.221191,59.4462891 201.681152,59.1181641 C201.141113,58.7900391 200.736654,58.3183594 200.467773,57.703125 C200.198893,57.0878906 200.064453,56.3610026 200.064453,55.5224609 C200.064453,54.5061849 200.206868,53.65625 200.491699,52.9726562 C200.77653,52.2890625 201.167318,51.7911784 201.664062,51.4790039 C202.160807,51.1668294 202.716797,51.0107422 203.332031,51.0107422 C204.065755,51.0107422 204.694661,51.218099 205.21875,51.6328125 C205.742839,52.047526 206.146159,52.7265625 206.428711,53.6699219 L206.428711,53.6699219 L206.640625,53.6699219 L206.428711,50.5185547 L206.189453,50.5185547 C206.139323,50.7373047 206.055013,50.9082031 205.936523,51.03125 C205.845378,51.1178385 205.738281,51.1611328 205.615234,51.1611328 C205.533203,51.1611328 205.396484,51.1110026 205.205078,51.0107422 C204.553385,50.6826172 203.892578,50.5185547 203.222656,50.5185547 C202.361328,50.5185547 201.56722,50.7316081 200.840332,51.1577148 C200.113444,51.5838216 199.542643,52.1842448 199.12793,52.9589844 C198.713216,53.733724 198.505859,54.5836589 198.505859,55.5087891 C198.505859,56.6572266 198.820312,57.6552734 199.449219,58.5029297 C200.292318,59.6422526 201.481771,60.2119141 203.017578,60.2119141 Z"/>
	<path d="M202.204102,92 L202.204102,91.7470703 L201.869141,91.7470703 C201.650391,91.7470703 201.440755,91.6923828 201.240234,91.5830078 C201.094401,91.5009766 200.998698,91.4029948 200.953125,91.2890625 C200.89388,91.1386719 200.864258,90.828776 200.864258,90.359375 L200.864258,90.359375 L200.864258,87.4472656 L202.552734,87.4472656 C202.86263,87.4472656 203.096191,87.4894206 203.253418,87.5737305 C203.410645,87.6580404 203.533691,87.7845052 203.622559,87.953125 C203.711426,88.1217448 203.758138,88.3860677 203.762695,88.7460938 L203.762695,88.7460938 L204.015625,88.7460938 L204.015625,85.6083984 L203.762695,85.6083984 C203.703451,86.1142578 203.583822,86.4526367 203.403809,86.6235352 C203.223796,86.7944336 202.940104,86.8798828 202.552734,86.8798828 L202.552734,86.8798828 L200.864258,86.8798828 L200.864258,83.2363281 L202.908203,83.2363281 C203.391276,83.2363281 203.747884,83.281901 203.978027,83.3730469 C204.208171,83.4641927 204.401855,83.6111654 204.559082,83.8139648 C204.716309,84.0167643 204.854167,84.3346354 204.972656,84.7675781 L204.972656,84.7675781 L205.211914,84.7675781 L205.123047,82.7304688 L198.225586,82.7304688 L198.225586,82.9833984 L198.553711,82.9833984 C198.777018,82.9833984 198.986654,83.0380859 199.182617,83.1474609 C199.323893,83.2294922 199.417318,83.327474 199.462891,83.4414062 C199.522135,83.5917969 199.551758,83.9016927 199.551758,84.3710938 L199.551758,84.3710938 L199.551758,90.359375 C199.551758,90.9153646 199.49707,91.266276 199.387695,91.4121094 C199.214518,91.6354167 198.936523,91.7470703 198.553711,91.7470703 L198.553711,91.7470703 L198.225586,91.7470703 L198.225586,92 L202.204102,92 Z"/>
	<path d="M232.204102,92 L232.204102,91.7470703 L231.869141,91.7470703 C231.650391,91.7470703 231.440755,91.6923828 231.240234,91.5830078 C231.094401,91.5009766 230.998698,91.4029948 230.953125,91.2890625 C230.89388,91.1386719 230.864258,90.828776 230.864258,90.359375 L230.864258,90.359375 L230.864258,87.4472656 L232.552734,87.4472656 C232.86263,87.4472656 233.096191,87.4894206 233.253418,87.5737305 C233.410645,87.6580404 233.533691,87.7845052 233.622559,87.953125 C233.711426,88.1217448 233.758138,88.3860677 233.762695,88.7460938 L233.762695,88.7460938 L234.015625,88.7460938 L234.015625,85.6083984 L233.762695,85.6083984 C233.703451,86.1142578 233.583822,86.4526367 233.403809,86.6235352 C233.223796,86.7944336 232.940104,86.8798828 232.552734,86.8798828 L232.552734,86.8798828 L230.864258,86.8798828 L230.864258,83.2363281 L232.908203,83.2363281 C233.391276,83.2363281 233.747884,83.281901 233.978027,83.3730469 C234.208171,83.4641927 234.401855,83.6111654 234.559082,83.8139648 C234.716309,84.0167643 234.854167,84.3346354 234.972656,84.7675781 L234.972656,84.7675781 L235.211914,84.7675781 L235.123047,82.7304688 L228.225586,82.7304688 L228.225586,82.9833984 L228.553711,82.9833984 C228.777018,82.9833984 228.986654,83.0380859 229.182617,83.1474609 C229.323893,83.2294922 229.417318,83.327474 229.462891,83.4414062 C229.522135,83.5917969 229.551758,83.9016927 229.551758,84.3710938 L229.551758,84.3710938 L229.551758,90.359375 C229.551758,90.9153646 229.49707,91.266276 229.387695,91.4121094 C229.214518,91.6354167 228.936523,91.7470703 228.553711,91.7470703 L228.553711,91.7470703 L228.225586,91.7470703 L228.225586,92 L232.204102,92 Z"/>
	<path d="M263.204102,92 L263.204102,91.7470703 L262.869141,91.7470703 C262.650391,91.7470703 262.440755,91.6923828 262.240234,91.5830078 C262.094401,91.5009766 261.998698,91.4029948 261.953125,91.2890625 C261.89388,91.1386719 261.864258,90.828776 261.864258,90.359375 L261.864258,90.359375 L261.864258,87.4472656 L263.552734,87.4472656 C263.86263,87.4472656 264.096191,87.4894206 264.253418,87.5737305 C264.410645,87.6580404 264.533691,87.7845052 264.622559,87.953125 C264.711426,88.1217448 264.758138,88.3860677 264.762695,88.7460938 L264.762695,88.7460938 L265.015625,88.7460938 L265.015625,85.6083984 L264.762695,85.6083984 C264.703451,86.1142578 264.583822,86.4526367 264.403809,86.6235352 C264.223796,86.7944336 263.940104,86.8798828 263.552734,86.8798828 L263.552734,86.8798828 L261.864258,86.8798828 L261.864258,83.2363281 L263.908203,83.2363281 C264.391276,83.2363281 264.747884,83.281901 264.978027,83.3730469 C265.208171,83.4641927 265.401855,83.6111654 265.559082,83.8139648 C265.716309,84.0167643 265.854167,84.3346354 265.972656,84.7675781 L265.972656,84.7675781 L266.211914,84.7675781 L266.123047,82.7304688 L259.225586,82.7304688 L259.225586,82.9833984 L259.553711,82.9833984 C259.777018,82.9833984 259.986654,83.0380859 260.182617,83.1474609 C260.323893,83.2294922 260.417318,83.327474 260.462891,83.4414062 C260.522135,83.5917969 260.551758,83.9016927 260.551758,84.3710938 L260.551758,84.3710938 L260.551758,90.359375 C260.551758,90.9153646 260.49707,91.266276 260.387695,91.4121094 C260.214518,91.6354167 259.936523,91.7470703 259.553711,91.7470703 L259.553711,91.7470703 L259.225586,91.7470703 L259.225586,92 L263.204102,92 Z"/>
	<path d="M202.204102,28 L202.204102,27.7470703 L201.869141,27.7470703 C201.650391,27.7470703 201.440755,27.6923828 201.240234,27.5830078 C201.094401,27.5009766 200.998698,27.4029948 200.953125,27.2890625 C200.89388,27.1386719 200.864258,26.828776 200.864258,26.359375 L200.864258,26.359375 L200.864258,23.4472656 L202.552734,23.4472656 C202.86263,23.4472656 203.096191,23.4894206 203.253418,23.5737305 C203.410645,23.6580404 203.533691,23.7845052 203.622559,23.953125 C203.711426,24.1217448 203.758138,24.3860677 203.762695,24.7460938 L203.762695,24.7460938 L204.015625,24.7460938 L204.015625,21.6083984 L203.762695,21.6083984 C203.703451,22.1142578 203.583822,22.4526367 203.403809,22.6235352 C203.223796,22.7944336 202.940104,22.8798828 202.552734,22.8798828 L202.552734,22.8798828 L200.864258,22.8798828 L200.864258,19.2363281 L202.908203,19.2363281 C203.391276,19.2363281 203.747884,19.281901 203.978027,19.3730469 C204.208171,19.4641927 204.401855,19.6111654 204.559082,19.8139648 C204.716309,20.0167643 204.854167,20.3346354 204.972656,20.7675781 L204.972656,20.7675781 L205.211914,20.7675781 L205.123047,18.7304688 L198.225586,18.7304688 L198.225586,18.9833984 L198.553711,18.9833984 C198.777018,18.9833984 198.986654,19.0380859 199.182617,19.1474609 C199.323893,19.2294922 199.417318,19.327474 199.462891,19.4414062 C199.522135,19.5917969 199.551758,19.9016927 199.551758,20.3710938 L199.551758,20.3710938 L199.551758,26.359375 C199.551758,26.9153646 199.49707,27.266276 199.387695,27.4121094 C199.214518,27.6354167 198.936523,27.7470703 198.553711,27.7470703 L198.553711,27.7470703 L198.225586,27.7470703 L198.225586,28 L202.204102,28 Z"/>
	<path d="M232.204102,28 L232.204102,27.7470703 L231.869141,27.7470703 C231.650391,27.7470703 231.440755,27.6923828 231.240234,27.5830078 C231.094401,27.5009766 230.998698,27.4029948 230.953125,27.2890625 C230.89388,27.1386719 230.864258,26.828776 230.864258,26.359375 L230.864258,26.359375 L230.864258,23.4472656 L232.552734,23.4472656 C232.86263,23.4472656 233.096191,23.4894206 233.253418,23.5737305 C233.410645,23.6580404 233.533691,23.7845052 233.622559,23.953125 C233.711426,24.1217448 233.758138,24.3860677 233.762695,24.7460938 L233.762695,24.7460938 L234.015625,24.7460938 L234.015625,21.6083984 L233.762695,21.6083984 C233.703451,22.1142578 233.583822,22.4526367 233.403809,22.6235352 C233.223796,22.7944336 232.940104,22.8798828 232.552734,22.8798828 L232.552734,22.8798828 L230.864258,22.8798828 L230.864258,19.2363281 L232.908203,19.2363281 C233.391276,19.2363281 233.747884,19.281901 233.978027,19.3730469 C234.208171,19.4641927 234.401855,19.6111654 234.559082,19.8139648 C234.716309,20.0167643 234.854167,20.3346354 234.972656,20.7675781 L234.972656,20.7675781 L235.211914,20.7675781 L235.123047,18.7304688 L228.225586,18.7304688 L228.225586,18.9833984 L228.553711,18.9833984 C228.777018,18.9833984 228.986654,19.0380859 229.182617,19.1474609 C229.323893,19.2294922 229.417318,19.327474 229.462891,19.4414062 C229.522135,19.5917969 229.551758,19.9016927 229.551758,20.3710938 L229.551758,20.3710938 L229.551758,26.359375 C229.551758,26.9153646 229.49707,27.266276 229.387695,27.4121094 C229.214518,27.6354167 228.936523,27.7470703 228.553711,27.7470703 L228.553711,27.7470703 L228.225586,27.7470703 L228.225586,28 L232.204102,28 Z"/>
	<path d="M263.204102,28 L263.204102,27.7470703 L262.869141,27.7470703 C262.650391,27.7470703 262.440755,27.6923828 262.240234,27.5830078 C262.094401,27.5009766 261.998698,27.4029948 261.953125,27.2890625 C261.89388,27.1386719 261.864258,26.828776 261.864258,26.359375 L261.864258,26.359375 L261.864258,23.4472656 L263.552734,23.4472656 C263.86263,23.4472656 264.096191,23.4894206 264.253418,23.5737305 C264.410645,23.6580404 264.533691,23.7845052 264.622559,23.953125 C264.711426,24.1217448 264.758138,24.3860677 264.762695,24.7460938 L264.762695,24.7460938 L265.015625,24.7460938 L265.015625,21.6083984 L264.762695,21.6083984 C264.703451,22.1142578 264.583822,22.4526367 264.403809,22.6235352 C264.223796,22.7944336 263.940104,22.8798828 263.552734,22.8798828 L263.552734,22.8798828 L261.864258,22.8798828 L261.864258,19.2363281 L263.908203,19.2363281 C264.391276,19.2363281 264.747884,19.281901 264.978027,19.3730469 C265.208171,19.4641927 265.401855,19.6111654 265.559082,19.8139648 C265.716309,20.0167643 265.854167,20.3346354 265.972656,20.7675781 L265.972656,20.7675781 L266.211914,20.7675781 L266.123047,18.7304688 L259.225586,18.7304688 L259.225586,18.9833984 L259.553711,18.9833984 C259.777018,18.9833984 259.986654,19.0380859 260.182617,19.1474609 C260.323893,19.2294922 260.417318,19.327474 260.462891,19.4414062 C260.522135,19.5917969 260.551758,19.9016927 260.551758,20.3710938 L260.551758,20.3710938 L260.551758,26.359375 C260.551758,26.9153646 260.49707,27.266276 260.387695,27.4121094 C260.214518,27.6354167 259.936523,27.7470703 259.553711,27.7470703 L259.553711,27.7470703 L259.225586,27.7470703 L259.225586,28 L263.204102,28 Z"/>
	<line x1="233.5" x2="233.5" y1="46.5" y2="34.5"/>
	<line x1="233.5" x2="233.5" y1="76.5" y2="64.5"/>
	<path d="M233.017578,60.2119141 C233.869792,60.2119141 234.605794,60.0205078 235.225586,59.6376953 C235.845378,59.2548828 236.387695,58.6510417 236.852539,57.8261719 L236.852539,57.8261719 L236.640625,57.6894531 C236.089193,58.4550781 235.583333,58.9666341 235.123047,59.2241211 C234.66276,59.4816081 234.131836,59.6103516 233.530273,59.6103516 C232.837565,59.6103516 232.221191,59.4462891 231.681152,59.1181641 C231.141113,58.7900391 230.736654,58.3183594 230.467773,57.703125 C230.198893,57.0878906 230.064453,56.3610026 230.064453,55.5224609 C230.064453,54.5061849 230.206868,53.65625 230.491699,52.9726562 C230.77653,52.2890625 231.167318,51.7911784 231.664062,51.4790039 C232.160807,51.1668294 232.716797,51.0107422 233.332031,51.0107422 C234.065755,51.0107422 234.694661,51.218099 235.21875,51.6328125 C235.742839,52.047526 236.146159,52.7265625 236.428711,53.6699219 L236.428711,53.6699219 L236.640625,53.6699219 L236.428711,50.5185547 L236.189453,50.5185547 C236.139323,50.7373047 236.055013,50.9082031 235.936523,51.03125 C235.845378,51.1178385 235.738281,51.1611328 235.615234,51.1611328 C235.533203,51.1611328 235.396484,51.1110026 235.205078,51.0107422 C234.553385,50.6826172 233.892578,50.5185547 233.222656,50.5185547 C232.361328,50.5185547 231.56722,50.7316081 230.840332,51.1577148 C230.113444,51.5838216 229.542643,52.1842448 229.12793,52.9589844 C228.713216,53.733724 228.505859,54.5836589 228.505859,55.5087891 C228.505859,56.6572266 228.820312,57.6552734 229.449219,58.5029297 C230.292318,59.6422526 231.481771,60.2119141 233.017578,60.2119141 Z"/>
	<line x1="263.5" x2="263.5" y1="46.5" y2="34.5"/>
	<line x1="263.5" x2="263.5" y1="76.5" y2="64.5"/>
	<path d="M263.017578,60.2119141 C263.869792,60.2119141 264.605794,60.0205078 265.225586,59.6376953 C265.845378,59.2548828 266.387695,58.6510417 266.852539,57.8261719 L266.852539,57.8261719 L266.640625,57.6894531 C266.089193,58.4550781 265.583333,58.9666341 265.123047,59.2241211 C264.66276,59.4816081 264.131836,59.6103516 263.530273,59.6103516 C262.837565,59.6103516 262.221191,59.4462891 261.681152,59.1181641 C261.141113,58.7900391 260.736654,58.3183594 260.467773,57.703125 C260.198893,57.0878906 260.064453,56.3610026 260.064453,55.5224609 C260.064453,54.5061849 260.206868,53.65625 260.491699,52.9726562 C260.77653,52.2890625 261.167318,51.7911784 261.664062,51.4790039 C262.160807,51.1668294 262.716797,51.0107422 263.332031,51.0107422 C264.065755,51.0107422 264.694661,51.218099 265.21875,51.6328125 C265.742839,52.047526 266.146159,52.7265625 266.428711,53.6699219 L266.428711,53.6699219 L266.640625,53.6699219 L266.428711,50.5185547 L266.189453,50.5185547 C266.139323,50.7373047 266.055013,50.9082031 265.936523,51.03125 C265.845378,51.1178385 265.738281,51.1611328 265.615234,51.1611328 C265.533203,51.1611328 265.396484,51.1110026 265.205078,51.0107422 C264.553385,50.6826172 263.892578,50.5185547 263.222656,50.5185547 C262.361328,50.5185547 261.56722,50.7316081 260.840332,51.1577148 C260.113444,51.5838216 259.542643,52.1842448 259.12793,52.9589844 C258.713216,53.733724 258.505859,54.5836589 258.505859,55.5087891 C258.505859,56.6572266 258.820312,57.6552734 259.449219,58.5029297 C260.292318,59.6422526 261.481771,60.2119141 263.017578,60.2119141 Z"/>
	<path d="M313.210938,60 L313.210938,59.7470703 L312.875977,59.7470703 C312.657227,59.7470703 312.44987,59.6923828 312.253906,59.5830078 C312.108073,59.5009766 312.01237,59.4029948 311.966797,59.2890625 C311.907552,59.1386719 311.87793,58.828776 311.87793,58.359375 L311.87793,58.359375 L311.87793,55.5361328 L316.18457,55.5361328 L316.18457,58.359375 C316.18457,58.9153646 316.127604,59.266276 316.013672,59.4121094 C315.840495,59.6354167 315.564779,59.7470703 315.186523,59.7470703 L315.186523,59.7470703 L314.858398,59.7470703 L314.858398,60 L318.823242,60 L318.823242,59.7470703 L318.495117,59.7470703 C318.276367,59.7470703 318.066732,59.6923828 317.866211,59.5830078 C317.724935,59.5009766 317.63151,59.4029948 317.585938,59.2890625 C317.526693,59.1386719 317.49707,58.828776 317.49707,58.359375 L317.49707,58.359375 L317.49707,52.3779297 C317.49707,51.9222005 317.523275,51.6202799 317.575684,51.472168 C317.628092,51.324056 317.727214,51.2135417 317.873047,51.140625 C318.06901,51.0358073 318.276367,50.9833984 318.495117,50.9833984 L318.495117,50.9833984 L318.823242,50.9833984 L318.823242,50.7304688 L314.858398,50.7304688 L314.858398,50.9833984 L315.186523,50.9833984 C315.405273,50.9833984 315.61263,51.0380859 315.808594,51.1474609 C315.954427,51.2294922 316.05013,51.327474 316.095703,51.4414062 C316.154948,51.5917969 316.18457,51.9039714 316.18457,52.3779297 L316.18457,52.3779297 L316.18457,55.0302734 L311.87793,55.0302734 L311.87793,52.3779297 C311.87793,51.9222005 311.905273,51.6202799 311.959961,51.472168 C312.014648,51.324056 312.11263,51.2135417 312.253906,51.140625 C312.44987,51.0358073 312.657227,50.9833984 312.875977,50.9833984 L312.875977,50.9833984 L313.210938,50.9833984 L313.210938,50.7304688 L309.239258,50.7304688 L309.239258,50.9833984 L309.567383,50.9833984 C309.786133,50.9833984 309.995768,51.0380859 310.196289,51.1474609 C310.337565,51.2294922 310.43099,51.327474 310.476562,51.4414062 C310.535807,51.5917969 310.56543,51.9039714 310.56543,52.3779297 L310.56543,52.3779297 L310.56543,58.359375 C310.56543,58.9153646 310.510742,59.266276 310.401367,59.4121094 C310.22819,59.6354167 309.950195,59.7470703 309.567383,59.7470703 L309.567383,59.7470703 L309.239258,59.7470703 L309.239258,60 L313.210938,60 Z M323.314453,60 L323.314453,59.7470703 L322.979492,59.7470703 C322.760742,59.7470703 322.551107,59.6923828 322.350586,59.5830078 C322.204753,59.5009766 322.109049,59.4029948 322.063477,59.2890625 C322.004232,59.1386719 321.974609,58.828776 321.974609,58.359375 L321.974609,58.359375 L321.974609,55.4472656 L323.663086,55.4472656 C323.972982,55.4472656 324.206543,55.4894206 324.36377,55.5737305 C324.520996,55.6580404 324.644043,55.7845052 324.73291,55.953125 C324.821777,56.1217448 324.86849,56.3860677 324.873047,56.7460938 L324.873047,56.7460938 L325.125977,56.7460938 L325.125977,53.6083984 L324.873047,53.6083984 C324.813802,54.1142578 324.694173,54.4526367 324.51416,54.6235352 C324.334147,54.7944336 324.050456,54.8798828 323.663086,54.8798828 L323.663086,54.8798828 L321.974609,54.8798828 L321.974609,51.2363281 L324.018555,51.2363281 C324.501628,51.2363281 324.858236,51.281901 325.088379,51.3730469 C325.318522,51.4641927 325.512207,51.6111654 325.669434,51.8139648 C325.82666,52.0167643 325.964518,52.3346354 326.083008,52.7675781 L326.083008,52.7675781 L326.322266,52.7675781 L326.233398,50.7304688 L319.335938,50.7304688 L319.335938,50.9833984 L319.664062,50.9833984 C319.88737,50.9833984 320.097005,51.0380859 320.292969,51.1474609 C320.434245,51.2294922 320.527669,51.327474 320.573242,51.4414062 C320.632487,51.5917969 320.662109,51.9016927 320.662109,52.3710938 L320.662109,52.3710938 L320.662109,58.359375 C320.662109,58.9153646 320.607422,59.266276 320.498047,59.4121094 C320.32487,59.6354167 320.046875,59.7470703 319.664062,59.7470703 L319.664062,59.7470703 L319.335938,59.7470703 L319.335938,60 L323.314453,60 Z"/>
	<path d="M151.204102,59 L151.204102,58.7470703 L150.869141,58.7470703 C150.650391,58.7470703 150.440755,58.6923828 150.240234,58.5830078 C150.094401,58.5009766 149.998698,58.4029948 149.953125,58.2890625 C149.89388,58.1386719 149.864258,57.828776 149.864258,57.359375 L149.864258,57.359375 L149.864258,54.4472656 L151.552734,54.4472656 C151.86263,54.4472656 152.096191,54.4894206 152.253418,54.5737305 C152.410645,54.6580404 152.533691,54.7845052 152.622559,54.953125 C152.711426,55.1217448 152.758138,55.3860677 152.762695,55.7460938 L152.762695,55.7460938 L153.015625,55.7460938 L153.015625,52.6083984 L152.762695,52.6083984 C152.703451,53.1142578 152.583822,53.4526367 152.403809,53.6235352 C152.223796,53.7944336 151.940104,53.8798828 151.552734,53.8798828 L151.552734,53.8798828 L149.864258,53.8798828 L149.864258,50.2363281 L151.908203,50.2363281 C152.391276,50.2363281 152.747884,50.281901 152.978027,50.3730469 C153.208171,50.4641927 153.401855,50.6111654 153.559082,50.8139648 C153.716309,51.0167643 153.854167,51.3346354 153.972656,51.7675781 L153.972656,51.7675781 L154.211914,51.7675781 L154.123047,49.7304688 L147.225586,49.7304688 L147.225586,49.9833984 L147.553711,49.9833984 C147.777018,49.9833984 147.986654,50.0380859 148.182617,50.1474609 C148.323893,50.2294922 148.417318,50.327474 148.462891,50.4414062 C148.522135,50.5917969 148.551758,50.9016927 148.551758,51.3710938 L148.551758,51.3710938 L148.551758,57.359375 C148.551758,57.9153646 148.49707,58.266276 148.387695,58.4121094 C148.214518,58.6354167 147.936523,58.7470703 147.553711,58.7470703 L147.553711,58.7470703 L147.225586,58.7470703 L147.225586,59 L151.204102,59 Z"/>
	<path d="M157.296875,62 L157.667969,60.9804688 L157.523438,60.9804688 C157.455729,61.0976562 157.376302,61.188151 157.285156,61.2519531 C157.19401,61.3157552 157.091797,61.3580729 156.978516,61.3789062 C156.865234,61.3997396 156.667969,61.4101562 156.386719,61.4101562 L156.386719,61.4101562 L155.003906,61.4101562 C155.165365,61.2643229 155.570312,60.8372396 156.21875,60.1289062 C156.651042,59.6575521 156.963542,59.2109375 157.15625,58.7890625 C157.28125,58.5208333 157.34375,58.2526042 157.34375,57.984375 C157.34375,57.609375 157.19987,57.2838542 156.912109,57.0078125 C156.624349,56.7317708 156.265625,56.59375 155.835938,56.59375 C155.432292,56.59375 155.095703,56.7226562 154.826172,56.9804688 C154.556641,57.2382812 154.389323,57.6080729 154.324219,58.0898438 L154.324219,58.0898438 L154.46875,58.0898438 C154.567708,57.7955729 154.720703,57.5722656 154.927734,57.4199219 C155.134766,57.2675781 155.36849,57.1914062 155.628906,57.1914062 C155.915365,57.1914062 156.161458,57.2994792 156.367188,57.515625 C156.572917,57.7317708 156.675781,58.0078125 156.675781,58.34375 C156.675781,58.7838542 156.488281,59.2695312 156.113281,59.8007812 C155.738281,60.3320312 155.091146,61.0169271 154.171875,61.8554688 L154.171875,61.8554688 L154.171875,62 L157.296875,62 Z"/>
	<polygon points="136.204102 60.0361328 136.204102 56.625 139.62207 56.625 139.62207 56.0644531 136.204102 56.0644531 136.204102 52.6669922 135.657227 52.6669922 135.657227 56.0644531 132.25293 56.0644531 132.25293 56.625 135.657227 56.625 135.657227 60.0361328"/>
	<polygon points="297.204102 60.0361328 297.204102 56.625 300.62207 56.625 300.62207 56.0644531 297.204102 56.0644531 297.204102 52.6669922 296.657227 52.6669922 296.657227 56.0644531 293.25293 56.0644531 293.25293 56.625 296.657227 56.625 296.657227 60.0361328"/>
	<path d="M170.864258,58.003418 C171.410156,57.394043 171.879883,56.931722 172.273438,56.6164551 C172.666992,56.3011882 173.073242,56.0419922 173.492188,55.8388672 L173.492188,55.8388672 L173.492188,55.5532227 C173.128255,55.3966471 172.741048,55.15861 172.330566,54.8391113 C171.920085,54.5196126 171.433431,54.0530599 170.870605,53.4394531 L170.870605,53.4394531 L170.388184,53.4394531 C170.637858,53.9388021 170.826172,54.2879232 170.953125,54.4868164 C171.080078,54.6857096 171.304362,54.9903971 171.625977,55.4008789 L171.625977,55.4008789 L161.501465,55.4008789 L161.501465,56.0419922 L171.625977,56.0419922 C171.190104,56.4990234 170.773275,57.152832 170.375488,58.003418 L170.375488,58.003418 L170.864258,58.003418 Z"/>
</svg>
